<svg width="1010.58" height="769.76" xmlns="http://www.w3.org/2000/svg">
 <title>buffer</title>

 <g>
  <title>background</title>
  <rect fill="none" id="canvas_background" height="771.76" width="1012.58" y="-1" x="-1"/>
 </g>
 <g>
  <title>Layer 1</title>
  <path id="svg_1" opacity="0.1" fill="#4c64d2" d="m928.5535,719.553303l-103.72,-179.65a3.3,3.3 0 0 0 -5.73,0l-103.72,179.65a3.3,3.3 0 0 0 2.86,5l30.94,0a3.32,3.32 0 0 1 3.31,3.31l0,38.35a3.31,3.31 0 0 0 3.3,3.31l40.33,0a3.31,3.31 0 0 0 3.31,-3.31l0,-18.54a3.3,3.3 0 0 1 3.3,-3.3l38.39,0a3.31,3.31 0 0 1 3.31,3.3l0,18.54a3.31,3.31 0 0 0 3.31,3.31l40.38,0a3.31,3.31 0 0 0 3.31,-3.31l0,-38.39a3.31,3.31 0 0 1 3.31,-3.31l30.94,0a3.31,3.31 0 0 0 2.87,-4.96zm-144.61,19.88a3.3,3.3 0 0 1 -2.34,1l-14.56,0a3.31,3.31 0 0 1 0,-6.62l14.56,0a3.31,3.31 0 0 1 2.34,5.65l0,-0.03zm95.28,0.03a3.3,3.3 0 0 1 -2.34,1l-14.55,0a3.31,3.31 0 0 1 0,-6.62l14.55,0a3.31,3.31 0 0 1 2.34,5.65l0,-0.03z"/>
  <path id="svg_2" opacity="0.1" fill="#4c64d2" d="m338.128907,718.4667l-103.72,-179.65a3.31,3.31 0 0 0 -5.73,0l-89.59,155.17a273.67,273.67 0 0 0 37.53,38.71l14.56,0a3.31,3.31 0 0 1 0,6.62l-6.16,0a160.29,160.29 0 0 0 24,14.93l0,-7.65a3.31,3.31 0 0 1 3.31,-3.31l38.46,0a3.31,3.31 0 0 1 3.3,3.31l0,18.52a3.22,3.22 0 0 0 0.31,1.39a3.31,3.31 0 0 0 3,1.92l40.37,0a3.24,3.24 0 0 0 2.63,-1.33a3.18,3.18 0 0 0 0.67,-2l0,-38.35a3.31,3.31 0 0 1 3.31,-3.31l30.94,0a3.31,3.31 0 0 0 2.81,-4.97zm-68.56,15.2a3.3,3.3 0 0 1 2.34,-1l14.56,0a3.31,3.31 0 0 1 0,6.62l-14.56,0a3.31,3.31 0 0 1 -2.34,-5.65l0,0.03zm-65.15,-66.48a3.31,3.31 0 0 1 -3.31,-3.31l0,-25.14a3.31,3.31 0 0 1 3.31,-3.31l54.26,0a3.31,3.31 0 0 1 3.3,3.31l0,25.14a3.31,3.31 0 0 1 -3.3,3.31l-54.26,0z"/>
  <path stroke="null" id="svg_3" opacity="0.1" fill="#002cf4" d="m710.840496,470.174455l-122.097589,0l0,-23.59003a6.318017,5.642572 0 0 0 -6.318017,-5.642572l-35.890906,0l0,-25.128141a3.977306,3.552101 0 0 0 -3.977306,-3.552101l-46.195745,0a3.977306,3.552101 0 0 0 -3.977306,3.552101l0,25.128141l-42.161348,0a6.318017,5.642572 0 0 0 -6.318017,5.642572l0,23.59003l-116.455143,0a1.284537,1.14721 0 0 0 -1.275022,1.14721l0,313.162749a1.284537,1.14721 0 0 0 1.275022,1.14721l77.395713,0a1.284537,1.14721 0 0 0 1.284537,-1.14721l0,-42.132338a1.294052,1.155708 0 0 1 1.284537,-1.14721l32.693837,0a1.294052,1.155708 0 0 1 1.284537,1.14721l0,42.132338a1.284537,1.14721 0 0 0 1.275022,1.14721l152.955014,0a1.294052,1.155708 0 0 0 1.284537,-1.14721l0,-42.132338a1.284537,1.14721 0 0 1 1.275022,-1.14721l32.693837,0a1.284537,1.14721 0 0 1 1.284537,1.14721l0,42.132338a1.294052,1.155708 0 0 0 1.284537,1.14721l77.395713,0a1.294052,1.155708 0 0 0 1.284537,-1.14721l0,-313.162749a1.294052,1.155708 0 0 0 -1.284537,-1.14721zm-318.565093,256.397115a1.275022,1.138712 0 0 1 -1.275022,1.138712l-47.803794,0a1.275022,1.138712 0 0 1 -1.284537,-1.138712l0,-14.58231a1.284537,1.14721 0 0 1 1.284537,-1.14721l47.803794,0a1.284537,1.14721 0 0 1 1.275022,1.14721l0,14.58231zm0,-52.261774a1.275022,1.138712 0 0 1 -1.275022,1.14721l-47.803794,0a1.275022,1.138712 0 0 1 -1.284537,-1.14721l0,0.008498a1.275022,1.138712 0 0 1 1.284537,-1.14721l47.803794,0a1.275022,1.138712 0 0 1 1.275022,1.14721l0,-0.008498zm0,-37.670967a1.284537,1.14721 0 0 1 -1.275022,1.14721l-47.803794,0a1.284537,1.14721 0 0 1 -1.284537,-1.14721l0,0a1.284537,1.14721 0 0 1 1.284537,-1.14721l47.803794,0a1.284537,1.14721 0 0 1 1.275022,1.14721zm0,-37.679465a1.275022,1.138712 0 0 1 -1.275022,1.14721l-47.803794,0a1.275022,1.138712 0 0 1 -1.284537,-1.14721l0,0.008498a1.275022,1.138712 0 0 1 1.284537,-1.14721l47.803794,0a1.275022,1.138712 0 0 1 1.275022,1.14721l0,-0.008498zm0,-37.670967a1.284537,1.14721 0 0 1 -1.275022,1.14721l-47.803794,0a1.284537,1.14721 0 0 1 -1.284537,-1.14721l0,0a1.275022,1.138712 0 0 1 1.284537,-1.138712l47.803794,0a1.275022,1.138712 0 0 1 1.275022,1.138712zm0,-37.670967a1.275022,1.138712 0 0 1 -1.275022,1.138712l-47.803794,0a1.275022,1.138712 0 0 1 -1.284537,-1.138712l0,0a1.284537,1.14721 0 0 1 1.284537,-1.14721l47.803794,0a1.284537,1.14721 0 0 1 1.275022,1.14721zm0,-37.679465a1.275022,1.138712 0 0 1 -1.275022,1.14721l-47.803794,0a1.275022,1.138712 0 0 1 -1.284537,-1.14721l0,0.008498a1.275022,1.138712 0 0 1 1.284537,-1.14721l47.803794,0a1.275022,1.138712 0 0 1 1.275022,1.14721l0,-0.008498zm113.334194,226.042796a1.275022,1.138712 0 0 1 -1.284537,1.138712l-47.841854,0a1.284537,1.14721 0 0 1 -1.284537,-1.138712l0,0.008498a1.294052,1.155708 0 0 1 1.284537,-1.14721l47.803794,0a1.284537,1.14721 0 0 1 1.284537,1.14721l0.03806,-0.008498zm0,-37.679465a1.275022,1.138712 0 0 1 -1.284537,1.14721l-47.841854,0a1.284537,1.14721 0 0 1 -1.284537,-1.14721l0,0.016996a1.284537,1.14721 0 0 1 1.284537,-1.14721l47.803794,0a1.275022,1.138712 0 0 1 1.284537,1.14721l0.03806,-0.016996zm0,-37.670967a1.284537,1.14721 0 0 1 -1.284537,1.14721l-47.841854,0a1.294052,1.155708 0 0 1 -1.284537,-1.14721l0,0.008498a1.294052,1.155708 0 0 1 1.284537,-1.14721l47.803794,0a1.284537,1.14721 0 0 1 1.284537,1.14721l0.03806,-0.008498zm0,-37.679465a1.275022,1.138712 0 0 1 -1.284537,1.14721l-47.841854,0a1.284537,1.14721 0 0 1 -1.284537,-1.14721l0,0.016996a1.284537,1.14721 0 0 1 1.284537,-1.14721l47.803794,0a1.275022,1.138712 0 0 1 1.284537,1.14721l0.03806,-0.016996zm0,-37.670967a1.284537,1.14721 0 0 1 -1.284537,1.14721l-47.841854,0a1.294052,1.155708 0 0 1 -1.284537,-1.14721l0,0.008498a1.284537,1.14721 0 0 1 1.284537,-1.138712l47.803794,0a1.275022,1.138712 0 0 1 1.284537,1.138712l0.03806,-0.008498zm0,-37.670967a1.275022,1.138712 0 0 1 -1.284537,1.138712l-47.841854,0a1.284537,1.14721 0 0 1 -1.284537,-1.138712l0,0.008498a1.294052,1.155708 0 0 1 1.284537,-1.14721l47.803794,0a1.284537,1.14721 0 0 1 1.284537,1.14721l0.03806,-0.008498zm0,-37.679465a1.275022,1.138712 0 0 1 -1.284537,1.14721l-47.841854,0a1.284537,1.14721 0 0 1 -1.284537,-1.14721l0,0.016996a1.284537,1.14721 0 0 1 1.284537,-1.14721l47.803794,0a1.275022,1.138712 0 0 1 1.284537,1.14721l0.03806,-0.016996zm77.443288,226.042796a1.275022,1.138712 0 0 1 -1.284537,1.138712l-47.803794,0a1.284537,1.14721 0 0 1 -1.284537,-1.138712l0,0.016996a1.294052,1.155708 0 0 1 1.284537,-1.14721l47.803794,0a1.284537,1.14721 0 0 1 1.284537,1.14721l0,-0.016996zm0,-37.679465a1.275022,1.138712 0 0 1 -1.284537,1.14721l-47.803794,0a1.284537,1.14721 0 0 1 -1.284537,-1.14721l0,0.025494a1.284537,1.14721 0 0 1 1.284537,-1.14721l47.803794,0a1.275022,1.138712 0 0 1 1.284537,1.14721l0,-0.025494zm0,-37.670967a1.284537,1.14721 0 0 1 -1.284537,1.14721l-47.803794,0a1.294052,1.155708 0 0 1 -1.284537,-1.14721l0,0.016996a1.294052,1.155708 0 0 1 1.284537,-1.14721l47.803794,0a1.284537,1.14721 0 0 1 1.284537,1.14721l0,-0.016996zm0,-37.679465a1.275022,1.138712 0 0 1 -1.284537,1.14721l-47.803794,0a1.284537,1.14721 0 0 1 -1.284537,-1.14721l0,0.025494a1.284537,1.14721 0 0 1 1.284537,-1.14721l47.803794,0a1.275022,1.138712 0 0 1 1.284537,1.14721l0,-0.025494zm0,-37.670967a1.284537,1.14721 0 0 1 -1.284537,1.14721l-47.803794,0a1.294052,1.155708 0 0 1 -1.284537,-1.14721l0,0.016996a1.284537,1.14721 0 0 1 1.284537,-1.138712l47.803794,0a1.275022,1.138712 0 0 1 1.284537,1.138712l0,-0.016996zm0,-37.670967a1.275022,1.138712 0 0 1 -1.284537,1.138712l-47.803794,0a1.284537,1.14721 0 0 1 -1.284537,-1.138712l0,0.016996a1.294052,1.155708 0 0 1 1.284537,-1.14721l47.803794,0a1.284537,1.14721 0 0 1 1.284537,1.14721l0,-0.016996zm0,-37.679465a1.275022,1.138712 0 0 1 -1.284537,1.14721l-47.803794,0a1.284537,1.14721 0 0 1 -1.284537,-1.14721l0,0.025494a1.284537,1.14721 0 0 1 1.284537,-1.14721l47.803794,0a1.275022,1.138712 0 0 1 1.284537,1.14721l0,-0.025494zm113.334194,226.042796a1.284537,1.14721 0 0 1 -1.284537,1.138712l-47.803794,0a1.275022,1.138712 0 0 1 -1.284537,-1.138712l0,0.025494a1.284537,1.14721 0 0 1 1.284537,-1.14721l47.803794,0a1.294052,1.155708 0 0 1 1.284537,1.14721l0,-0.025494zm0,-37.679465a1.284537,1.14721 0 0 1 -1.284537,1.14721l-47.803794,0a1.275022,1.138712 0 0 1 -1.284537,-1.14721l0,0.033991a1.275022,1.138712 0 0 1 1.284537,-1.14721l47.803794,0a1.284537,1.14721 0 0 1 1.284537,1.14721l0,-0.033991zm0,-37.670967a1.294052,1.155708 0 0 1 -1.284537,1.14721l-47.803794,0a1.284537,1.14721 0 0 1 -1.284537,-1.14721l0,0.025494a1.284537,1.14721 0 0 1 1.284537,-1.14721l47.803794,0a1.294052,1.155708 0 0 1 1.284537,1.14721l0,-0.025494zm0,-37.679465a1.284537,1.14721 0 0 1 -1.284537,1.14721l-47.803794,0a1.275022,1.138712 0 0 1 -1.284537,-1.14721l0,0.033991a1.275022,1.138712 0 0 1 1.284537,-1.14721l47.803794,0a1.284537,1.14721 0 0 1 1.284537,1.14721l0,-0.033991zm0,-37.670967a1.294052,1.155708 0 0 1 -1.284537,1.14721l-47.803794,0a1.284537,1.14721 0 0 1 -1.284537,-1.14721l0,0.025494a1.275022,1.138712 0 0 1 1.284537,-1.138712l47.803794,0a1.284537,1.14721 0 0 1 1.284537,1.138712l0,-0.025494zm0,-37.670967a1.284537,1.14721 0 0 1 -1.284537,1.138712l-47.803794,0a1.275022,1.138712 0 0 1 -1.284537,-1.138712l0,0.025494a1.284537,1.14721 0 0 1 1.284537,-1.14721l47.803794,0a1.294052,1.155708 0 0 1 1.284537,1.14721l0,-0.025494zm0,-37.679465a1.284537,1.14721 0 0 1 -1.284537,1.14721l-47.803794,0a1.275022,1.138712 0 0 1 -1.284537,-1.14721l0,0.033991a1.275022,1.138712 0 0 1 1.284537,-1.14721l47.803794,0a1.284537,1.14721 0 0 1 1.284537,1.14721l0,-0.033991z"/>
  <g id="svg_4" opacity="0.1">
   <path id="svg_5" fill="#3f3d56" d="m97.929802,724.598013a24.45,24.45 0 0 1 -3.23,12.38a25.34,25.34 0 0 1 0,24.76a22.75,22.75 0 0 1 2.44,6a454.1,454.1 0 0 1 -30.09,-45l0,0a24,24 0 0 1 3.16,-10.56a24.45,24.45 0 0 1 -3.23,-12.3a25.46,25.46 0 0 1 1.46,-8.61a21.39,21.39 0 0 1 1.77,-3.77c2.82,-4.79 7.26,-7.88 12.24,-7.88s9.43,3.09 12.25,7.88a22.28,22.28 0 0 1 1.73,3.65a25.63,25.63 0 0 1 1.5,8.73a24.45,24.45 0 0 1 -3.23,12.38a24.45,24.45 0 0 1 3.23,12.34z"/>
   <ellipse id="svg_6" fill="#3f3d56" ry="20.26" rx="15.47" cy="675.078015" cx="82.449801"/>
   <ellipse id="svg_7" fill="#3f3d56" ry="20.26" rx="15.47" cy="650.318015" cx="82.449801"/>
   <path id="svg_8" fill="#4c64d2" d="m156.249802,526.708013a73.78,73.78 0 0 1 -15.87,45.83a74.13,74.13 0 0 1 -44,118.57c-1.78,0.36 -3.59,0.64 -5.42,0.86a74.89,74.89 0 0 1 -17,0.09q-2.82,-0.3 -5.57,-0.83a73.3,73.3 0 0 1 -23,-8.41a738.54,738.54 0 0 1 -34.91,-83.83a73.79,73.79 0 0 1 13.29,-26.45a74.19,74.19 0 0 1 -11.95,-69.61l56.28,18.89l-52.78,-27.42a74.43,74.43 0 0 1 8.54,-13.52a74.13,74.13 0 1 1 122.43,-82.95l-54.41,40l59,-30.6a74.22,74.22 0 0 1 -1.42,58.73l-44,-0.33l40.66,6.68a74.43,74.43 0 0 1 -5.77,8.48a73.8,73.8 0 0 1 15.9,45.82z"/>
   <path id="svg_9" opacity="0.1" d="m156.249802,618.368013a74.15,74.15 0 0 1 -59.82,72.74c-1.78,0.36 -3.59,0.64 -5.42,0.86a74.89,74.89 0 0 1 -17,0.09q-2.82,-0.3 -5.57,-0.83a73.3,73.3 0 0 1 -23,-8.41a738.54,738.54 0 0 1 -34.91,-83.83a73.79,73.79 0 0 1 13.29,-26.45a73.83,73.83 0 0 1 -15.86,-45.83c0,-8.32 142.32,33.22 132.38,45.83a73.78,73.78 0 0 1 15.91,45.83z"/>
  </g>
  <g id="svg_10" opacity="0.1">
   <path id="svg_11" fill="#3f3d56" d="m983.813301,711.984514c-2.9,9.26 -6,18.45 -9.18,27.43a25.69,25.69 0 0 1 -1.32,-8.21c0,-8.93 4.4,-16.52 10.5,-19.22z"/>
   <path id="svg_12" fill="#4c64d2" d="m1014.913301,552.414514c0,17.56 -3.54,45.28 -10,77a846.64,846.64 0 0 1 -21.15,82.57c-2.9,9.26 -6,18.45 -9.18,27.43c-3.65,10.19 -7.5,20.11 -11.53,29.6a74.4,74.4 0 0 1 -32.91,-115.76a74.5,74.5 0 0 1 -12,-69.77l56.28,18.93l-52.78,-27.48a74.67,74.67 0 0 1 8.45,-13.55a74.39,74.39 0 0 1 29.12,-114.24a127.55,127.55 0 0 1 48.75,63.93l-9.85,7.25l10.46,-5.43a127,127 0 0 1 6.09,33.32l-2.94,0l3,0.49c0.15,1.84 0.19,3.84 0.19,5.71z"/>
   <path id="svg_13" opacity="0.1" d="m1004.963301,629.414514a846.64,846.64 0 0 1 -21.15,82.57c-2.9,9.26 -6,18.45 -9.18,27.43c-3.65,10.19 -7.5,20.11 -11.53,29.6a74.4,74.4 0 0 1 -32.91,-115.76a74.12,74.12 0 0 1 -15.86,-45.94c0,-5.03 51.72,8.11 90.63,22.1z"/>
  </g>
  <path id="svg_14" opacity="0.1" fill="#4c64d2" d="m339.529603,191.188311a28.9,28.9 0 0 0 -16.74,1.83a24.71,24.71 0 0 1 -20.14,0a28.26,28.26 0 0 0 -23.68,0.46a14.64,14.64 0 0 1 -6.82,1.71c-9.6,0 -17.59,-9.67 -19.25,-22.43a18.58,18.58 0 0 0 4.8,-5.18c5.63,-9.07 14.35,-14.89 24.14,-14.89s18.4,5.75 24,14.73a18.53,18.53 0 0 0 15.95,8.71l0.25,0c7.65,0 14.27,6.13 17.49,15.06z"/>
  <path id="svg_15" opacity="0.1" fill="#4c64d2" d="m368.789603,151.138311l-15.52,9.85l9.41,-17.11a15.4,15.4 0 0 0 -9.39,-3.35l-0.25,0a18.16,18.16 0 0 1 -3.22,-0.23l-5.26,3.33l2.26,-4.1a18.68,18.68 0 0 1 -9.2,-7l-9.42,6l5.95,-10.81c-5.51,-6.61 -12.93,-10.67 -21.09,-10.67c-9.79,0 -18.51,5.83 -24.14,14.9a18,18 0 0 1 -16,8.6l-0.53,0c-10.81,0 -19.57,12.26 -19.57,27.37s8.76,27.37 19.57,27.37a14.72,14.72 0 0 0 6.82,-1.7a28.22,28.22 0 0 1 23.68,-0.47a24.71,24.71 0 0 0 20.14,0.05a28.29,28.29 0 0 1 23.48,0.45a14.65,14.65 0 0 0 6.74,1.67c10.81,0 19.57,-12.25 19.57,-27.37a34.76,34.76 0 0 0 -4.03,-16.78z"/>
  <path id="svg_16" opacity="0.1" fill="#4c64d2" d="m784.529603,354.668311a20.23,20.23 0 0 0 -11.74,1.28a17.27,17.27 0 0 1 -14.1,0a19.8,19.8 0 0 0 -16.58,0.32a10.29,10.29 0 0 1 -4.77,1.2c-6.72,0 -12.31,-6.78 -13.47,-15.71a12.94,12.94 0 0 0 3.36,-3.62c3.94,-6.35 10,-10.42 16.89,-10.42s12.89,4 16.83,10.3a13,13 0 0 0 11.16,6.14l0.18,0c5.35,-0.03 9.98,4.26 12.24,10.51z"/>
  <path id="svg_17" opacity="0.1" fill="#4c64d2" d="m806.332901,318.63851l-10.86,6.89l6.59,-12a10.69,10.69 0 0 0 -6.57,-2.35l-0.17,0a11.21,11.21 0 0 1 -2.25,-0.17l-3.69,2.34l1.58,-2.87a13.13,13.13 0 0 1 -6.44,-4.89l-6.59,4.18l4.16,-7.57c-3.85,-4.62 -9.05,-7.46 -14.76,-7.46c-6.85,0 -13,4.07 -16.9,10.42a12.65,12.65 0 0 1 -11.17,6l-0.37,0c-7.56,0 -13.7,8.58 -13.7,19.16s6.14,19.16 13.7,19.16a10.17,10.17 0 0 0 4.77,-1.2a19.8,19.8 0 0 1 16.58,-0.32a17.5,17.5 0 0 0 7.09,1.52a17.29,17.29 0 0 0 7,-1.49a19.79,19.79 0 0 1 16.43,0.32a10.24,10.24 0 0 0 4.72,1.17c7.57,0 13.7,-8.58 13.7,-19.16a24.35,24.35 0 0 0 -2.85,-11.68z"/>
  <path id="svg_18" opacity="0.1" fill="#4c64d2" d="m207.199603,309.668311a20.24,20.24 0 0 1 11.74,1.28a17.24,17.24 0 0 0 14.09,0a19.8,19.8 0 0 1 16.58,0.32a10.32,10.32 0 0 0 4.77,1.2c6.72,0 12.32,-6.78 13.48,-15.71a12.79,12.79 0 0 1 -3.36,-3.62c-3.94,-6.35 -10,-10.42 -16.9,-10.42s-12.88,4 -16.82,10.3a13,13 0 0 1 -11.17,6.14l-0.17,0c-5.35,-0.03 -9.99,4.26 -12.24,10.51z"/>
  <path id="svg_19" opacity="0.1" fill="#4c64d2" d="m186.719603,281.638311l10.87,6.89l-6.6,-12a10.71,10.71 0 0 1 6.57,-2.35l0.23,0a11.26,11.26 0 0 0 2.25,-0.17l3.68,2.34l-1.58,-2.87a13.15,13.15 0 0 0 6.45,-4.89l6.59,4.18l-4.17,-7.57c3.86,-4.62 9.05,-7.46 14.77,-7.46c6.85,0 12.95,4.07 16.9,10.42a12.64,12.64 0 0 0 11.17,6l0.36,0c7.57,0 13.7,8.58 13.7,19.16s-6.13,19.16 -13.7,19.16a10.23,10.23 0 0 1 -4.77,-1.2a19.8,19.8 0 0 0 -16.58,-0.32a17.45,17.45 0 0 1 -7.08,1.52a17.22,17.22 0 0 1 -7,-1.49a19.81,19.81 0 0 0 -16.44,0.32a10.21,10.21 0 0 1 -4.72,1.17c-7.56,0 -13.7,-8.58 -13.7,-19.16a24.35,24.35 0 0 1 2.8,-11.68z"/>
  <path id="svg_20" fill="#192534" d="m270.299603,469.998311l219.43,106c5.71,2.72 13.36,4.15 20.88,4.15s15.17,-1.43 20.88,-4.15l219.43,-106c11.55,-5.58 11.55,-14.66 0,-20.23l-219.43,-106c-5.71,-2.72 -13.36,-4.15 -20.88,-4.15s-15.17,1.43 -20.88,4.15l-219.43,106c-11.51,5.57 -11.51,14.65 0,20.23z"/>
  <ellipse id="svg_23" fill="#192534" ry="66.17" rx="47.64" cy="279.798314" cx="377.429602"/>
  <rect id="svg_24" fill="#4c64d2" height="42.35" width="42.35" y="388.318314" x="372.139602"/>
  <path id="svg_25" fill="#fbbebe" d="m339.789603,592.368311l13.91,19.56a25.34,25.34 0 0 1 10.05,-20.26a123.83,123.83 0 0 0 -19.69,-15.79a1.58,1.58 0 0 0 -1.14,-0.38a1.65,1.65 0 0 0 -0.85,0.63c-2.07,2.45 -4.7,5.69 -5.59,8.83c-0.85,2.92 1.61,5.09 3.31,7.41z"/>
  <path id="svg_26" fill="#f2f2f2" d="m367.449603,589.698311c2.15,0 4.14,1 6,2.07a30.77,30.77 0 0 1 6.91,4.53a10.48,10.48 0 0 1 3.54,7.25c0,2.23 -0.92,4.34 -1.72,6.42a55.5,55.5 0 0 0 -2.58,30.4c0.65,3.32 1.61,6.8 0.58,10c-0.93,2.94 -3.35,5.12 -5.72,7.09c-3.78,3.13 -7.94,6.19 -12.81,6.85s-10.5,-2 -11.58,-6.74c-0.64,-2.82 0.37,-5.71 1.07,-8.51c1.67,-6.69 1.63,-13.67 1.58,-20.57a28.38,28.38 0 0 0 -0.52,-6.25c-0.33,-1.44 -0.89,-2.82 -1.36,-4.23c-1.26,-3.79 -1.81,-8 -0.37,-11.75a23.41,23.41 0 0 1 3.25,-5.34c3.4,-4.55 7.07,-11.25 13.73,-11.22z"/>
  <path id="svg_27" fill="#fbbebe" d="m359.899603,296.588311c0.12,2.48 0.21,5.1 -0.94,7.3c-1,1.95 -2.85,3.3 -4.63,4.59l-5.93,4.29c-0.3,0.21 -0.63,0.48 -0.66,0.84a1.26,1.26 0 0 0 0.64,1a19.67,19.67 0 0 0 8.23,3.75a39,39 0 0 0 6.39,0.54c11.12,0.33 22.43,0.58 33.16,-2.34a17,17 0 0 0 5.48,-2.33a7,7 0 0 0 3.08,-4.91c-2.74,-0.15 -5.16,-1.76 -7.42,-3.31s-4.57,-3.24 -5.29,-5.82c-0.45,-1.61 -0.19,-3.35 -0.56,-5c-0.62,-2.66 -2.84,-4.65 -5.22,-6c-6.14,-3.48 -13.39,-3.69 -20.08,-5.51c-2.4,-0.65 -6.69,-3.53 -6.85,0.36c-0.17,4.13 0.4,8.43 0.6,12.55z"/>
  <path id="svg_28" opacity="0.1" d="m359.899603,296.588311c0.12,2.48 0.21,5.1 -0.94,7.3c-1,1.95 -2.85,3.3 -4.63,4.59l-5.93,4.29c-0.3,0.21 -0.63,0.48 -0.66,0.84a1.26,1.26 0 0 0 0.64,1a19.67,19.67 0 0 0 8.23,3.75a39,39 0 0 0 6.39,0.54c11.12,0.33 22.43,0.58 33.16,-2.34a17,17 0 0 0 5.48,-2.33a7,7 0 0 0 3.08,-4.91c-2.74,-0.15 -5.16,-1.76 -7.42,-3.31s-4.57,-3.24 -5.29,-5.82c-0.45,-1.61 -0.19,-3.35 -0.56,-5c-0.62,-2.66 -2.84,-4.65 -5.22,-6c-6.14,-3.48 -13.39,-3.69 -20.08,-5.51c-2.4,-0.65 -6.69,-3.53 -6.85,0.36c-0.17,4.13 0.4,8.43 0.6,12.55z"/>
  <path id="svg_29" fill="#01e7c0" d="m349.079603,435.588311c-8.64,-2.12 -17.73,1 -25.56,5.17s-15.07,9.63 -23.39,12.78c-6.67,2.53 -14.1,3.65 -19.71,8.06c-5,4 -7.89,10.07 -9.75,16.2a25.76,25.76 0 0 0 -1.38,10.7a29,29 0 0 0 2.63,8c5.8,12.84 13.12,24.91 20.43,37c13.1,21.61 26.32,43.38 43.3,62.11c5.42,-3.72 4.89,-12.68 10.26,-16.46c1.35,-1 3,-1.5 4.13,-2.69c2.54,-2.63 1.55,-6.93 0.35,-10.38a519.51,519.51 0 0 0 -26.41,-62.68c14.61,0.1 26.86,-11.32 41.25,-13.88a75.9,75.9 0 0 1 12.06,-0.8a409.14,409.14 0 0 0 42.56,-3c5.12,-0.64 10.55,-1.51 14.4,-4.95c4,-3.58 5.42,-9.16 6.63,-14.39c2.54,-10.89 8.91,-20.45 12.83,-30.92c1,-2.7 2,-5.41 3.23,-8c1.08,-2.22 2.36,-4.34 3.5,-6.53c3.6,-7 5.64,-14.67 7.39,-22.34c2.1,-9.2 4,-18.6 5.94,-27.84c1.3,-6.36 3.83,-13.26 0.81,-19c-1.71,-3.25 -4.94,-5.44 -8.28,-7c-3.57,-1.63 -7.55,-2.69 -11.43,-2.08c-7.64,1.21 -12.79,8.21 -17.08,14.63l-6.7,10.09a71.28,71.28 0 0 0 -4.42,7.23c-2.52,4.94 -3.89,10.36 -5.82,15.55c-5.21,13.94 -15,26.53 -28.3,33.17c-3.54,1.77 -7.28,3.1 -10.84,4.81c-2.79,1.34 -5.47,2.91 -8.29,4.19c-7.63,3.54 -16.13,5.26 -24.34,3.25z"/>
  <circle id="svg_30" fill="#fbbebe" r="26.470001" cy="271.858314" cx="382.729602"/>
  <path id="svg_31" fill="#4c64d2" d="m394.269603,301.948311c-1.12,3 -2.3,6.11 -4.41,8.55c-3.78,4.36 -9.89,5.91 -15.66,6.14a46.29,46.29 0 0 1 -18.8,-3.19c-2.56,-1 -5.17,-2.28 -7.9,-2c-3.95,0.35 -6.88,3.67 -10.36,5.58c-1.74,1 -3.65,1.57 -5.48,2.36a30.46,30.46 0 0 0 -17.55,22.14c-2,11.28 7.08,22 12.58,32.06c2.41,4.42 5.22,8.7 6.56,13.54c2.25,8.14 0.08,16.81 -2.77,24.76s-6.41,15.81 -7,24.23c-0.18,2.47 0.68,5.8 3.16,5.77a5.45,5.45 0 0 0 2.53,-1a22.5,22.5 0 0 1 14.62,-2.69c3.51,0.57 6.85,2 10.36,2.49c6.9,1 13.78,-1.42 20.31,-3.82c6.23,-2.29 12.71,-4.75 17.15,-9.69c3.33,-3.7 5.24,-8.53 8.66,-12.15c4.5,-4.75 11.29,-7.08 15.05,-12.43c2.21,-3.15 3.11,-7 4.39,-10.62s3.2,-7.32 6.58,-9.15c-1.81,-3.16 -3.83,-6.55 -3.61,-10.19c0.19,-3.17 1.95,-6 3.25,-8.9c0.85,-1.91 1.52,-3.9 2.19,-5.88l2.16,-6.43c0.58,-1.75 1.17,-3.49 1.61,-5.28c0.75,-3 1.06,-6.2 1.94,-9.21c2.24,-7.77 7.94,-14 13.21,-20.1a84.82,84.82 0 0 0 -14.21,-4.1a21.37,21.37 0 0 1 -4.76,-1.24c-1.75,-0.77 -3.23,-2 -4.92,-2.92c-2.64,-1.37 -5.67,-1.74 -8.61,-2.19a122,122 0 0 1 -20.27,-4.44z"/>
  <path id="svg_32" fill="#fbbebe" d="m304.949603,419.728311a25.8,25.8 0 0 0 0.23,7a27.39,27.39 0 0 0 2.87,6.8c5.5,10.51 10,21.51 14.53,32.49a43.69,43.69 0 0 1 2.91,8.78c0.42,2.28 0.47,4.62 0.77,6.92a22,22 0 0 0 1.79,6.56c1.06,2.26 6.8,14.33 9,15.51c4.73,2.57 11.08,0.2 14.09,-4.27s-1,-20.36 -2.38,-25.55s-4.24,-9.87 -6.88,-14.56a267.46,267.46 0 0 1 -12.53,-25.28c-3.18,-7.38 -6.08,-15.36 -4.74,-23.29c0.75,-4.46 2.81,-8.59 4.36,-12.84s2.6,-8.95 1.28,-13.29a6.28,6.28 0 0 0 -1,-2.11a6.72,6.72 0 0 0 -2.8,-1.81c-4.68,-1.89 -14.25,-3.46 -16.27,2.83c-0.83,2.61 -1,5.46 -1.7,8.13a97.61,97.61 0 0 0 -2.34,12.91c-0.61,4.99 -0.9,10.03 -1.19,15.07z"/>
  <path id="svg_33" fill="#fbbebe" d="m401.949603,438.528311q-8.85,10.44 -17.22,21.29l14.44,10.67a30.44,30.44 0 0 1 2.1,-5.5a30.82,30.82 0 0 1 3.43,-4.85l14.63,-18.13a25.91,25.91 0 0 0 -11.35,-3.84c-1.93,0.28 -4.1,0.08 -6.03,0.36z"/>
  <path id="svg_34" fill="#fbbebe" d="m465.339603,323.798311c3.82,0.87 7.64,1.74 11.41,2.8c7.83,2.21 15.75,5.42 21.17,11.49c1.2,1.34 2.29,3.38 1.23,4.84a6.78,6.78 0 0 1 -1.26,1.12c-1.47,1.22 -2.29,3 -3.2,4.71a36.89,36.89 0 0 1 -6.69,8.86a29.16,29.16 0 0 0 -7.39,-5.83l-6,-3.75c-2.65,-1.67 -5.4,-3.37 -8.5,-3.85c-3.56,-0.55 -7.15,0.57 -10.75,0.84a22.78,22.78 0 0 1 -13.11,-3a3.14,3.14 0 0 1 -1.24,-1.07a3.1,3.1 0 0 1 -0.33,-1.16a15.74,15.74 0 0 1 3.59,-11.48c1.85,-2.35 6,-6.75 9.19,-7.16c1.57,-0.2 3.8,0.83 5.35,1.18l6.53,1.46z"/>
  <path id="svg_35" fill="#01e7c0" d="m460.689603,348.508311a25.58,25.58 0 0 0 -3.14,1.46c-7.84,4.09 -15.93,8.39 -21.32,15.4a61.22,61.22 0 0 0 -6.44,11.51l-13.06,27.78l-2.74,5.83l-4.2,8.82l-10.68,22.72c3.81,-0.66 7.89,-0.62 11.36,1.08s6.17,5.35 5.88,9.21c3.1,-0.27 4.75,-3.64 6.93,-5.86c1.78,-1.82 4.12,-3 6.18,-4.47a48.85,48.85 0 0 0 7.33,-7.11a215,215 0 0 1 22.17,-21.36a49.87,49.87 0 0 0 4.4,-3.94a36.31,36.31 0 0 0 6.7,-11.27a98.13,98.13 0 0 0 6.58,-24.5c0.68,-5.12 0.92,-10.52 -1.17,-15.24a17,17 0 0 0 -18.75,-9.4"/>
  <path id="svg_36" opacity="0.1" d="m459.689603,349.508311a25.58,25.58 0 0 0 -3.14,1.46c-7.84,4.09 -15.93,8.39 -21.32,15.4a61.22,61.22 0 0 0 -6.44,11.51l-13.06,27.78l-2.74,5.83l-4.2,8.82l-10.68,22.72c3.81,-0.66 7.89,-0.62 11.36,1.08s6.17,5.35 5.88,9.21c3.1,-0.27 4.75,-3.64 6.93,-5.86c1.78,-1.82 4.12,-3 6.18,-4.47a48.85,48.85 0 0 0 7.33,-7.11a215,215 0 0 1 22.17,-21.36a49.87,49.87 0 0 0 4.4,-3.94a36.31,36.31 0 0 0 6.7,-11.27a98.13,98.13 0 0 0 6.58,-24.5c0.68,-5.12 0.92,-10.52 -1.17,-15.24a17,17 0 0 0 -18.75,-9.4"/>
  <path id="svg_37" fill="#f2f2f2" d="m390.839603,456.218311l-10.94,-1.2a1.72,1.72 0 0 0 -0.9,0.07a1.6,1.6 0 0 0 -0.63,0.77q-5.28,9.94 -9.86,20.24c-1.7,3.81 -3.29,8.38 -1.14,12c0.64,1.06 1.57,1.94 2.17,3c1.36,2.49 0.74,5.59 -0.24,8.26a4.33,4.33 0 0 0 -0.42,2.43c0.27,1.12 1.4,1.79 2.44,2.3a85.79,85.79 0 0 0 27.33,8.16a2.83,2.83 0 0 0 2.13,-0.31a2.86,2.86 0 0 0 0.82,-1.47a26.17,26.17 0 0 0 0.89,-3.26c0.72,-3.94 -0.39,-8 -1.23,-11.88c-1.36,-6.36 -2,-13.06 -0.16,-19.29a25.85,25.85 0 0 1 3.5,-7.32c1.74,-2.54 -4.21,-4.93 -5.79,-6.71c-2.68,-3.05 -3.5,-5.3 -7.97,-5.79z"/>
  <path id="svg_38" fill="#4c64d2" d="m310.219603,368.128311l-3.32,20.32c2.79,-2.64 6.94,-3.12 10.78,-3.2s8.31,0.29 11,3.17c1.09,1.18 1.78,2.67 2.84,3.88s2.71,2.12 4.22,1.6a3.65,3.65 0 0 0 2.14,-2.53a11,11 0 0 0 0.2,-3.43l-1.09,-22.42c-0.27,-5.41 -0.55,-10.94 -2.54,-16a25,25 0 0 0 -4.67,-7.55a8.18,8.18 0 0 0 -2,-1.73a8.37,8.37 0 0 0 -2.65,-0.79c-2.6,-0.41 -6.83,-1.09 -9.25,0.32c-2,1.19 -2.19,4 -2.42,6.08c-0.84,7.48 -2.02,14.89 -3.24,22.28z"/>
  <ellipse id="svg_39" fill="#192534" ry="15.88" rx="37.06" cy="255.978314" cx="382.729602"/>
  <circle id="svg_40" fill="#192534" r="21.17" cy="234.798314" cx="335.079602"/>
  <circle id="svg_41" fill="#192534" r="21.17" cy="229.508314" cx="409.199602"/>
  <path id="svg_42" opacity="0.1" d="m419.239603,217.448311a21.18,21.18 0 0 1 4.67,27.62a22.35,22.35 0 0 0 1.8,-1.95a21.18,21.18 0 0 0 -32.92,-26.65a22.45,22.45 0 0 0 -1.53,2.17a21.17,21.17 0 0 1 27.98,-1.19z"/>
  <path id="svg_43" opacity="0.1" d="m329.539603,220.038311a21.18,21.18 0 0 1 26.6,8.75a21.89,21.89 0 0 0 -0.88,-2.5a21.18,21.18 0 0 0 -38.92,16.7a19.35,19.35 0 0 0 1.2,2.36a21.17,21.17 0 0 1 12,-25.31z"/>
  <path id="svg_44" opacity="0.1" d="m382.729603,266.558311c-18.36,0 -33.59,-5.72 -36.54,-13.23a7.35,7.35 0 0 0 -0.52,2.65c0,8.77 16.59,15.88 37.06,15.88s37.06,-7.11 37.06,-15.88a7.15,7.15 0 0 0 -0.52,-2.65c-2.95,7.55 -18.18,13.23 -36.54,13.23z"/>
  <path id="svg_45" fill="#be000f" d="m783.789603,200.878311a21.83,21.83 0 0 0 -8.76,41.83a19.24,19.24 0 0 1 0.38,-5l2.81,-11.9a8.33,8.33 0 0 1 -0.7,-3.45c0,-3.24 1.87,-5.65 4.21,-5.65c2,0 2.94,1.49 2.94,3.27c0,2 -1.28,5 -1.93,7.75a3.37,3.37 0 0 0 3.45,4.2c4.13,0 6.92,-5.31 6.92,-11.61c0,-4.78 -3.23,-8.36 -9.08,-8.36a10.34,10.34 0 0 0 -10.75,10.46a6.3,6.3 0 0 0 1.44,4.28a1,1 0 0 1 0.31,1.21c-0.11,0.4 -0.34,1.37 -0.45,1.76a0.74,0.74 0 0 1 -1.09,0.54c-3.05,-1.24 -4.47,-4.58 -4.47,-8.34c0,-6.2 5.23,-13.63 15.6,-13.63c8.33,0 13.82,6 13.82,12.5c0,8.57 -4.77,15 -11.78,15a6.27,6.27 0 0 1 -5.33,-2.72s-1.27,5 -1.54,6a18,18 0 0 1 -2.2,4.68a21.83,21.83 0 1 0 6.2,-42.82z"/>
  <path id="svg_46" fill="#55acee" d="m724.719603,92.428311a19.19,19.19 0 0 1 -5.41,1.5a9.57,9.57 0 0 0 4.15,-5.23a18.86,18.86 0 0 1 -6,2.29a9.43,9.43 0 0 0 -16.32,6.45a9.66,9.66 0 0 0 0.24,2.16a26.75,26.75 0 0 1 -19.45,-9.87a9.46,9.46 0 0 0 2.94,12.6a9.13,9.13 0 0 1 -4.29,-1.17l0,0.11a9.44,9.44 0 0 0 7.57,9.26a9.7,9.7 0 0 1 -2.48,0.33a9.51,9.51 0 0 1 -1.78,-0.17a9.44,9.44 0 0 0 8.82,6.55a18.87,18.87 0 0 1 -11.72,4a18.62,18.62 0 0 1 -2.25,-0.14a26.36,26.36 0 0 0 14.44,4.27c17.37,0 26.87,-14.39 26.87,-26.88c0,-0.41 0,-0.81 0,-1.21a19.21,19.21 0 0 0 4.67,-4.85z"/>
  <path id="svg_47" fill="#3b5998" d="m407.459603,67.998311l-33.29,0a2.07,2.07 0 0 0 -2.07,2.07l0,33.28a2.07,2.07 0 0 0 2.07,2.07l16.62,0l0,-14.81l-4.47,0l0,-5.46l4.47,0l0,-4c0,-4.84 3.35,-7.47 7.67,-7.47c2.07,0 4.29,0.16 4.8,0.23l0,5l-3.44,0c-2.34,0 -2.79,1.12 -2.79,2.75l0,3.48l5.59,0l-0.73,5.46l-4.86,0l0,14.81l10.41,0a2.07,2.07 0 0 0 2.06,-2.07l0,-33.27a2.07,2.07 0 0 0 -2.04,-2.07z"/>
  <path id="svg_48" fill="#dd4b39" d="m515.869603,164.258311l-0.15,-0.68l-15.26,0l0,6.3l8.83,0c-0.91,4.38 -4.71,6.2 -8.19,6.2a9.35,9.35 0 0 1 -6.66,-2.47a9.83,9.83 0 0 1 -0.12,-13.64a9.16,9.16 0 0 1 6.69,-2.48a8.44,8.44 0 0 1 5.66,2.06l4.68,-4.65a15.82,15.82 0 0 0 -10.49,-4a15.66,15.66 0 0 0 -16,15.88a16,16 0 0 0 4.34,11a16.6,16.6 0 0 0 12,4.84a14.76,14.76 0 0 0 10.75,-4.51a15.85,15.85 0 0 0 4.13,-11a18,18 0 0 0 -0.2,-2.84l-0.01,-0.01zm18.9,-0.66l-5.56,0l0,-5.55l-4,0l0,5.55l-5.56,0l0,4l5.56,0l0,5.55l4,0l0,-5.55l5.58,0l-0.02,-4z"/>
  <path id="svg_49" fill="#e53c5f" d="m227.989603,198.018311a7.82,7.82 0 0 1 7.79,7.8l0,15.59a7.78,7.78 0 0 1 -2.29,5.5a7.68,7.68 0 0 1 -5.5,2.29l-15.6,0a7.82,7.82 0 0 1 -7.79,-7.79l0,-15.59a7.82,7.82 0 0 1 7.79,-7.8l15.6,0m0,-3.12l-15.6,0a10.94,10.94 0 0 0 -10.91,10.92l0,15.59a10.94,10.94 0 0 0 10.91,10.91l15.6,0a10.94,10.94 0 0 0 10.91,-10.91l0,-15.59a10.94,10.94 0 0 0 -10.91,-10.94l0,0.02z"/>
  <path id="svg_50" fill="#e53c5f" d="m230.319603,205.818311a2.34,2.34 0 1 1 2.34,-2.34a2.33,2.33 0 0 1 -2.34,2.34zm-10.13,1.56a6.24,6.24 0 1 1 -6.24,6.23a6.24,6.24 0 0 1 6.24,-6.23m0,-3.12a9.36,9.36 0 1 0 9.36,9.35a9.35,9.35 0 0 0 -9.36,-9.35z"/>
  <path id="svg_51" fill="#007bb6" d="m663.589603,290.878311l-31.22,0a3.05,3.05 0 0 0 -3.2,2.92l0,31.29a3.29,3.29 0 0 0 3.2,3.2l31.21,0a3.13,3.13 0 0 0 3,-3.2l0,-31.27a2.87,2.87 0 0 0 -2.99,-2.94zm-22.8,31.21l-5.36,0l0,-16.67l5.36,0l0,16.67zm-2.5,-35.87l0,0a2.88,2.88 0 1 1 2.94,-2.88a2.75,2.75 0 0 1 -3,19.54l0.06,-16.66zm22.08,19.2l-5.38,0l0,-9.12c0,-2.18 -0.78,-3.67 -2.72,-3.67a2.92,2.92 0 0 0 -2.74,2a3.51,3.51 0 0 0 -0.19,1.31l0,9.5l-5.36,0l0,-0.02l5.36,0l0,2.32a5.43,5.43 0 0 1 4.84,-2.71c3.51,0 6.17,2.32 6.17,7.32l0.02,-6.93z"/>
  <polygon id="svg_52" fill="#464a5f" points="440.3095998764038,461.5783004760742 442.9595937728882,466.3683090209961 529.1896047592163,448.0883102416992 525.7796010971069,442.66832733154297 440.3095998764038,461.5783004760742 "/>
  <path id="svg_53" fill="#464a5f" d="m429.979603,466.238311l-13.06,-77.46a2.48,2.48 0 0 1 2.18,-2.87l99,-10.56a2.47,2.47 0 0 1 2.71,2.12l9.26,67.85l-100.09,20.92z"/>
  <path id="svg_54" opacity="0.1" d="m429.979603,466.238311l-13.06,-77.46a2.48,2.48 0 0 1 2.18,-2.87l99,-10.56a2.47,2.47 0 0 1 2.71,2.12l9.26,67.85l-100.09,20.92z"/>
  <path id="svg_55" fill="#464a5f" d="m431.489603,466.238311l-13.05,-77.46a2.47,2.47 0 0 1 2.17,-2.87l99,-10.56a2.47,2.47 0 0 1 2.71,2.12l9.25,67.85l-100.08,20.92z"/>
  <polygon id="svg_56" fill="#4c64d2" points="425.3095998764038,392.2383041381836 436.02960109710693,458.04830169677734 525.5296010971069,439.6383285522461 517.2095937728882,381.14830780029297 425.3095998764038,392.2383041381836 "/>
  <path id="svg_57" fill="#9c9ca1" d="m442.459603,464.878311l-0.63,-1.27l-11.85,2.65l30.18,46.12a3.9,3.9 0 0 0 4.36,1.61l106,-30.81a3.9,3.9 0 0 0 1.27,-6.86l-41.08,-31.11l-8.57,2l0.38,0.88l-80.06,16.79z"/>
  <path id="svg_58" opacity="0.1" d="m442.459603,464.878311l-0.63,-1.27l-11.85,2.65l30.18,46.12a3.9,3.9 0 0 0 4.36,1.61l106,-30.81a3.9,3.9 0 0 0 1.27,-6.86l-41.08,-31.11l-8.57,2l0.38,0.88l-80.06,16.79z"/>
  <path id="svg_59" fill="#9c9ca1" d="m443.969603,464.878311l-0.63,-1.27l-11.85,2.65l30.18,46.12a3.9,3.9 0 0 0 4.36,1.61l106,-30.81a3.9,3.9 0 0 0 1.26,-6.86l-41.08,-31.11l-8.57,2l0.38,0.88l-80.05,16.79z"/>
  <path id="svg_60" opacity="0.1" d="m491.249603,483.748311l34.06,-8.87a0.67,0.67 0 0 1 0.61,0.15l15.13,13.73a0.66,0.66 0 0 1 -0.26,1.12l-36,10.64a0.65,0.65 0 0 1 -0.68,-0.21l-13.17,-15.51a0.67,0.67 0 0 1 0.31,-1.05z"/>
  <path id="svg_61" fill="#939498" d="m492.009603,482.998311l34.06,-8.85a0.66,0.66 0 0 1 0.61,0.15l15.11,13.72a0.66,0.66 0 0 1 -0.26,1.12l-36,10.64a0.67,0.67 0 0 1 -0.69,-0.21l-13.16,-15.51a0.65,0.65 0 0 1 0.33,-1.06z"/>
  <g id="svg_62" opacity="0.1">
   <path id="svg_63" d="m444.029603,471.288311l1.53,2.46a0.3,0.3 0 0 0 0.31,0.14l5.17,-1.15a0.3,0.3 0 0 0 0.17,-0.46l-1.71,-2.4a0.29,0.29 0 0 0 -0.3,-0.12l-5,1.07a0.29,0.29 0 0 0 -0.17,0.46z"/>
   <path id="svg_64" d="m450.789603,469.878311l1.52,2.47a0.31,0.31 0 0 0 0.32,0.13l5.16,-1.15a0.29,0.29 0 0 0 0.17,-0.46l-1.7,-2.38a0.3,0.3 0 0 0 -0.3,-0.12l-5,1.07a0.29,0.29 0 0 0 -0.17,0.44z"/>
   <path id="svg_65" d="m457.329603,468.458311l1.53,2.46a0.3,0.3 0 0 0 0.31,0.13l5.17,-1.15a0.3,0.3 0 0 0 0.17,-0.46l-1.72,-2.38a0.31,0.31 0 0 0 -0.3,-0.12l-5,1.07a0.3,0.3 0 0 0 -0.16,0.45z"/>
   <path id="svg_66" d="m463.789603,467.058311l1.51,2.43a0.32,0.32 0 0 0 0.34,0.14l5.12,-1.14a0.32,0.32 0 0 0 0.18,-0.49l-1.68,-2.35a0.31,0.31 0 0 0 -0.32,-0.12l-5,1.06a0.32,0.32 0 0 0 -0.15,0.47z"/>
   <path id="svg_67" d="m463.259603,470.818311l1.53,2.46a0.28,0.28 0 0 0 0.31,0.13l5.16,-1.15a0.28,0.28 0 0 0 0.17,-0.45l-1.7,-2.39a0.29,0.29 0 0 0 -0.3,-0.11l-5,1.07a0.29,0.29 0 0 0 -0.17,0.44z"/>
   <path id="svg_68" d="m456.569603,472.238311l1.53,2.46a0.3,0.3 0 0 0 0.32,0.13l5.16,-1.15a0.29,0.29 0 0 0 0.17,-0.46l-1.71,-2.34a0.28,0.28 0 0 0 -0.3,-0.11l-5,1.07a0.3,0.3 0 0 0 -0.17,0.4z"/>
   <path id="svg_69" d="m460.919603,475.258311l1.53,2.47a0.32,0.32 0 0 0 0.32,0.13l5.16,-1.15a0.29,0.29 0 0 0 0.17,-0.46l-1.71,-2.37a0.29,0.29 0 0 0 -0.3,-0.12l-5,1.07a0.3,0.3 0 0 0 -0.17,0.43z"/>
   <path id="svg_70" d="m467.069603,477.878311l1.53,2.46a0.28,0.28 0 0 0 0.31,0.13l5.16,-1.15a0.29,0.29 0 0 0 0.18,-0.45l-1.71,-2.39a0.29,0.29 0 0 0 -0.3,-0.11l-5,1.07a0.29,0.29 0 0 0 -0.17,0.44z"/>
   <path id="svg_71" d="m468.139603,482.188311l2.47,3.1a0.29,0.29 0 0 0 0.3,0.1l5.2,-1.35a0.3,0.3 0 0 0 0.16,-0.47l-2.56,-3.12a0.29,0.29 0 0 0 -0.3,-0.1l-5.12,1.38a0.29,0.29 0 0 0 -0.15,0.46z"/>
   <path id="svg_72" d="m474.939603,480.488311l2.54,3.19a0.29,0.29 0 0 0 0.3,0.1l6.79,-1.88a0.3,0.3 0 0 0 0.15,-0.47l-2.56,-3.13a0.29,0.29 0 0 0 -0.3,-0.1l-6.76,1.82a0.3,0.3 0 0 0 -0.16,0.47z"/>
   <path id="svg_73" d="m461.489603,483.878311l2.47,3.1a0.29,0.29 0 0 0 0.3,0.1l5.2,-1.35a0.3,0.3 0 0 0 0.16,-0.47l-2.56,-3.13a0.28,0.28 0 0 0 -0.3,-0.09l-5.12,1.37a0.3,0.3 0 0 0 -0.15,0.47z"/>
   <path id="svg_74" d="m454.459603,485.658311l2.47,3.09a0.29,0.29 0 0 0 0.3,0.1l5.2,-1.35a0.3,0.3 0 0 0 0.16,-0.47l-2.55,-3.15a0.31,0.31 0 0 0 -0.31,-0.1l-5.12,1.38a0.3,0.3 0 0 0 -0.15,0.5z"/>
   <path id="svg_75" d="m470.239603,465.548311l1.5,2.43a0.32,0.32 0 0 0 0.34,0.14l5.12,-1.14a0.31,0.31 0 0 0 0.18,-0.49l-1.68,-2.35a0.31,0.31 0 0 0 -0.32,-0.12l-4.94,1.06a0.3,0.3 0 0 0 -0.2,0.47z"/>
   <path id="svg_76" d="m469.789603,469.328311l1.5,2.43a0.32,0.32 0 0 0 0.34,0.14l5.12,-1.14a0.31,0.31 0 0 0 0.18,-0.49l-1.64,-2.39a0.31,0.31 0 0 0 -0.32,-0.12l-4.94,1.12a0.31,0.31 0 0 0 -0.24,0.45z"/>
   <path id="svg_77" d="m476.509603,464.128311l1.5,2.43a0.32,0.32 0 0 0 0.34,0.14l5.12,-1.14a0.31,0.31 0 0 0 0.18,-0.49l-1.68,-2.35a0.31,0.31 0 0 0 -0.32,-0.12l-4.94,1.06a0.31,0.31 0 0 0 -0.2,0.47z"/>
   <path id="svg_78" d="m494.849603,460.128311l2.12,2.26a0.28,0.28 0 0 0 0.24,0.07l4.57,-1.06a0.25,0.25 0 0 0 0.12,-0.43l-2.39,-2.26a0.27,0.27 0 0 0 -0.24,-0.06l-4.3,1.06a0.25,0.25 0 0 0 -0.12,0.42z"/>
   <path id="svg_79" d="m500.709603,458.768311l2.13,2.26a0.24,0.24 0 0 0 0.24,0.07l4.57,-1.06a0.24,0.24 0 0 0 0.11,-0.42l-2.39,-2.27a0.29,0.29 0 0 0 -0.24,-0.06l-4.3,1.06a0.26,0.26 0 0 0 -0.12,0.42z"/>
   <path id="svg_80" d="m494.969603,463.778311l2.13,2.26a0.24,0.24 0 0 0 0.24,0.07l4.57,-1.05a0.25,0.25 0 0 0 0.12,-0.43l-2.4,-2.26a0.25,0.25 0 0 0 -0.23,-0.07l-4.3,1.07a0.25,0.25 0 0 0 -0.13,0.41z"/>
   <path id="svg_81" d="m488.959603,465.178311l2,2.16a0.31,0.31 0 0 0 0.3,0.09l4.43,-1a0.32,0.32 0 0 0 0.14,-0.54l-2.29,-2.16a0.3,0.3 0 0 0 -0.29,-0.07l-4.16,1a0.32,0.32 0 0 0 -0.13,0.52z"/>
   <path id="svg_82" d="m493.529603,471.988311l2,2.16a0.33,0.33 0 0 0 0.3,0.09l4.43,-1a0.31,0.31 0 0 0 0.14,-0.53l-2.29,-2.16a0.33,0.33 0 0 0 -0.29,-0.08l-4.16,1a0.32,0.32 0 0 0 -0.13,0.52z"/>
   <path id="svg_83" d="m487.259603,473.408311l2,2.16a0.33,0.33 0 0 0 0.3,0.09l4.42,-1a0.31,0.31 0 0 0 0.15,-0.53l-2.29,-2.16a0.32,0.32 0 0 0 -0.29,-0.08l-4.17,1a0.32,0.32 0 0 0 -0.12,0.52z"/>
   <path id="svg_84" d="m480.889603,474.978311l2,2.16a0.31,0.31 0 0 0 0.3,0.09l4.43,-1a0.32,0.32 0 0 0 0.14,-0.54l-2.29,-2.16a0.3,0.3 0 0 0 -0.29,-0.07l-4.16,1a0.31,0.31 0 0 0 -0.13,0.52z"/>
   <path id="svg_85" d="m474.159603,476.308311l2.06,2.19a0.3,0.3 0 0 0 0.28,0.09l4.47,-1a0.29,0.29 0 0 0 0.14,-0.5l-2.32,-2.21a0.29,0.29 0 0 0 -0.27,-0.07l-4.21,1a0.28,0.28 0 0 0 -0.15,0.5z"/>
   <path id="svg_86" d="m487.199603,469.468311l2,2.16a0.32,0.32 0 0 0 0.3,0.09l4.42,-1a0.31,0.31 0 0 0 0.15,-0.53l-2.28,-2.19a0.32,0.32 0 0 0 -0.29,-0.08l-4.17,1a0.31,0.31 0 0 0 -0.13,0.55z"/>
   <path id="svg_87" d="m481.079603,470.878311l2,2.15a0.29,0.29 0 0 0 0.3,0.09l4.43,-1a0.31,0.31 0 0 0 0.14,-0.53l-2.29,-2.16a0.28,0.28 0 0 0 -0.29,-0.08l-4.16,1a0.31,0.31 0 0 0 -0.13,0.53z"/>
   <path id="svg_88" d="m474.529603,472.268311l2,2.16a0.31,0.31 0 0 0 0.3,0.09l4.42,-1a0.32,0.32 0 0 0 0.15,-0.54l-2.29,-2.16a0.31,0.31 0 0 0 -0.29,-0.07l-4.17,1a0.31,0.31 0 0 0 -0.12,0.52z"/>
   <path id="svg_89" d="m467.789603,473.878311l2.06,2.19a0.34,0.34 0 0 0 0.29,0.08l4.47,-1a0.29,0.29 0 0 0 0.13,-0.5l-2.32,-2.19a0.3,0.3 0 0 0 -0.27,-0.07l-4.21,1a0.3,0.3 0 0 0 -0.15,0.49z"/>
   <path id="svg_90" d="m493.499603,467.988311l2,2.15a0.31,0.31 0 0 0 0.3,0.1l4.42,-1a0.31,0.31 0 0 0 0.15,-0.53l-2.29,-2.16a0.29,0.29 0 0 0 -0.29,-0.08l-4.17,1a0.32,0.32 0 0 0 -0.12,0.52z"/>
   <path id="svg_91" d="m482.789603,466.758311l2,2.16a0.32,0.32 0 0 0 0.3,0.09l4.42,-1a0.31,0.31 0 0 0 0.14,-0.53l-2.28,-2.16a0.32,0.32 0 0 0 -0.29,-0.08l-4.17,1a0.31,0.31 0 0 0 -0.12,0.52z"/>
   <path id="svg_92" d="m506.369603,457.338311l2.23,2.36a0.19,0.19 0 0 0 0.18,0.06l4.72,-1.1a0.19,0.19 0 0 0 0.09,-0.32l-2.51,-2.37a0.19,0.19 0 0 0 -0.18,0l-4.44,1.1a0.18,0.18 0 0 0 -0.09,0.27z"/>
   <path id="svg_93" d="m512.069603,456.068311l2.23,2.37a0.21,0.21 0 0 0 0.18,0.06l4.72,-1.1a0.19,0.19 0 0 0 0.09,-0.32l-2.5,-2.37a0.17,0.17 0 0 0 -0.17,0l-4.45,1.1a0.18,0.18 0 0 0 -0.1,0.26z"/>
   <path id="svg_94" d="m517.939603,454.728311l2,2.19a0.18,0.18 0 0 0 0.19,0.06l4.4,-1.2a0.2,0.2 0 0 0 0.07,-0.33l-2.27,-1.91a0.2,0.2 0 0 0 -0.16,0l-4.17,0.92a0.18,0.18 0 0 0 -0.06,0.27z"/>
   <path id="svg_95" d="m524.079603,456.768311l2,2.2a0.2,0.2 0 0 0 0.18,0.06l4.4,-1.2a0.19,0.19 0 0 0 0.07,-0.33l-2.27,-1.91a0.16,0.16 0 0 0 -0.16,0l-4.16,0.91a0.19,0.19 0 0 0 -0.06,0.27z"/>
   <path id="svg_96" d="m523.339603,460.768311l1.93,2.08a0.23,0.23 0 0 0 0.25,0.07l4.24,-1.15a0.25,0.25 0 0 0 0.1,-0.44l-2.15,-1.82a0.25,0.25 0 0 0 -0.22,-0.05l-4,0.89a0.25,0.25 0 0 0 -0.15,0.42z"/>
   <path id="svg_97" d="m518.329603,465.878311l1.93,2.09a0.25,0.25 0 0 0 0.25,0.07l4.28,-1.16a0.25,0.25 0 0 0 0.1,-0.43l-2.15,-1.82a0.25,0.25 0 0 0 -0.22,0l-4,0.88a0.26,0.26 0 0 0 -0.19,0.37z"/>
   <path id="svg_98" d="m512.309603,467.418311l1.93,2.08a0.23,0.23 0 0 0 0.25,0.07l4.24,-1.15a0.25,0.25 0 0 0 0.1,-0.44l-2.15,-1.82a0.25,0.25 0 0 0 -0.22,0l-4,0.89a0.25,0.25 0 0 0 -0.15,0.37z"/>
   <path id="svg_99" d="m523.999603,464.358311l1.93,2.08a0.27,0.27 0 0 0 0.25,0.08l4.25,-1.16a0.25,0.25 0 0 0 0.09,-0.44l-2.15,-1.81a0.29,0.29 0 0 0 -0.22,-0.06l-4,0.89a0.26,0.26 0 0 0 -0.15,0.42z"/>
   <path id="svg_100" d="m523.019603,468.878311l2.91,2.62a0.3,0.3 0 0 0 0.24,0l4.21,-1.19a0.25,0.25 0 0 0 0.1,-0.43l-3.14,-2.75a0.23,0.23 0 0 0 -0.24,0l-4,1.33a0.24,0.24 0 0 0 -0.08,0.42z"/>
   <path id="svg_101" d="m512.789603,459.608311l2,2.2a0.17,0.17 0 0 0 0.18,0.05l4.4,-1.2a0.18,0.18 0 0 0 0.07,-0.32l-2.27,-1.92a0.18,0.18 0 0 0 -0.16,0l-4.16,0.92a0.19,0.19 0 0 0 -0.06,0.27z"/>
   <path id="svg_102" d="m507.139603,461.018311l1.93,2.08a0.27,0.27 0 0 0 0.25,0.08l4.25,-1.16a0.25,0.25 0 0 0 0.09,-0.44l-2.15,-1.81a0.29,0.29 0 0 0 -0.22,-0.06l-4,0.89a0.25,0.25 0 0 0 -0.15,0.42z"/>
   <path id="svg_103" d="m505.979603,465.048311l1.93,2.09a0.25,0.25 0 0 0 0.25,0.07l4.24,-1.16a0.25,0.25 0 0 0 0.1,-0.43l-2.16,-1.82a0.25,0.25 0 0 0 -0.22,-0.05l-4,0.88a0.25,0.25 0 0 0 -0.14,0.42z"/>
   <path id="svg_104" d="m499.989603,466.498311l1.93,2.09a0.25,0.25 0 0 0 0.25,0.07l4.24,-1.16a0.25,0.25 0 0 0 0.1,-0.43l-2.16,-1.82a0.23,0.23 0 0 0 -0.21,-0.05l-4,0.88a0.25,0.25 0 0 0 -0.15,0.42z"/>
   <path id="svg_105" d="m501.059603,462.368311l1.93,2.09a0.23,0.23 0 0 0 0.25,0.07l4.24,-1.16a0.25,0.25 0 0 0 0.1,-0.43l-2.15,-1.82a0.25,0.25 0 0 0 -0.22,-0.05l-4,0.89a0.25,0.25 0 0 0 -0.15,0.41z"/>
   <path id="svg_106" d="m506.069603,468.768311l1.93,2.09a0.25,0.25 0 0 0 0.25,0.07l4.24,-1.16a0.25,0.25 0 0 0 0.1,-0.43l-2.15,-1.82a0.25,0.25 0 0 0 -0.22,-0.05l-4,0.88a0.26,0.26 0 0 0 -0.15,0.42z"/>
   <path id="svg_107" d="m500.189603,470.358311l1.83,2a0.3,0.3 0 0 0 0.31,0.09l4.09,-1.11a0.32,0.32 0 0 0 0.12,-0.55l-2,-1.72a0.29,0.29 0 0 0 -0.27,-0.06l-3.88,0.85a0.31,0.31 0 0 0 -0.2,0.5z"/>
   <path id="svg_108" d="m518.629603,458.158311l2,2.2a0.19,0.19 0 0 0 0.19,0l4.4,-1.2a0.18,0.18 0 0 0 0.07,-0.32l-2.27,-1.92a0.22,0.22 0 0 0 -0.16,0l-4.16,0.92a0.19,0.19 0 0 0 -0.07,0.32z"/>
   <path id="svg_109" d="m517.789603,462.118311l1.93,2.09a0.25,0.25 0 0 0 0.25,0.07l4.24,-1.16a0.25,0.25 0 0 0 0.1,-0.43l-2.12,-1.81a0.25,0.25 0 0 0 -0.22,-0.05l-4,0.88a0.25,0.25 0 0 0 -0.18,0.41z"/>
   <path id="svg_110" d="m512.059603,463.698311l1.93,2.08a0.26,0.26 0 0 0 0.25,0.08l4.24,-1.16a0.26,0.26 0 0 0 0.1,-0.44l-2.16,-1.81a0.27,0.27 0 0 0 -0.21,-0.06l-4,0.89a0.25,0.25 0 0 0 -0.15,0.42z"/>
   <path id="svg_111" d="m488.859603,461.418311l2.13,2.26a0.26,0.26 0 0 0 0.24,0.07l4.57,-1.06a0.25,0.25 0 0 0 0.11,-0.43l-2.39,-2.26a0.26,0.26 0 0 0 -0.24,-0.06l-4.3,1.06a0.26,0.26 0 0 0 -0.12,0.42z"/>
   <path id="svg_112" d="m482.789603,462.878311l2,2.16a0.31,0.31 0 0 0 0.3,0.09l4.43,-1a0.32,0.32 0 0 0 0.14,-0.54l-2.29,-2.16a0.3,0.3 0 0 0 -0.29,-0.07l-4.16,1a0.32,0.32 0 0 0 -0.13,0.52z"/>
   <path id="svg_113" d="m476.219603,467.978311l1.51,2.42a0.31,0.31 0 0 0 0.34,0.14l5.11,-1.14a0.31,0.31 0 0 0 0.19,-0.49l-1.68,-2.34a0.34,0.34 0 0 0 -0.32,-0.13l-5,1.06a0.32,0.32 0 0 0 -0.15,0.48z"/>
   <path id="svg_114" d="m442.709603,468.878311l5.05,-1.17a0.29,0.29 0 0 1 0.3,0.11l0.89,1.17a0.29,0.29 0 0 1 -0.17,0.46l-5.23,1.22a0.29,0.29 0 0 1 -0.32,-0.14l-0.71,-1.22a0.29,0.29 0 0 1 0.19,-0.43z"/>
   <path id="svg_115" d="m449.659603,467.368311l5,-1.17a0.28,0.28 0 0 1 0.3,0.11l0.89,1.16a0.3,0.3 0 0 1 -0.17,0.47l-5.23,1.22a0.3,0.3 0 0 1 -0.32,-0.14l-0.71,-1.22a0.29,0.29 0 0 1 0.24,-0.43z"/>
   <path id="svg_116" d="m456.369603,465.878311l5,-1.16a0.28,0.28 0 0 1 0.3,0.1l0.89,1.17a0.29,0.29 0 0 1 -0.17,0.46l-5.23,1.22a0.29,0.29 0 0 1 -0.32,-0.14l-0.71,-1.21a0.3,0.3 0 0 1 0.24,-0.44z"/>
   <path id="svg_117" d="m462.899603,464.428311l5,-1.16a0.28,0.28 0 0 1 0.3,0.11l0.89,1.16a0.3,0.3 0 0 1 -0.17,0.47l-5.13,1.21a0.28,0.28 0 0 1 -0.32,-0.13l-0.71,-1.22a0.3,0.3 0 0 1 0.14,-0.44z"/>
   <path id="svg_118" d="m469.559603,462.958311l5,-1.16a0.33,0.33 0 0 1 0.32,0.12l0.86,1.13a0.32,0.32 0 0 1 -0.18,0.5l-5.19,1.21a0.32,0.32 0 0 1 -0.34,-0.15l-0.69,-1.18a0.32,0.32 0 0 1 0.22,-0.47z"/>
   <path id="svg_119" d="m476.019603,461.618311l5,-1.16a0.3,0.3 0 0 1 0.32,0.11l0.86,1.13a0.32,0.32 0 0 1 -0.18,0.5l-5.19,1.21a0.32,0.32 0 0 1 -0.34,-0.15l-0.7,-1.18a0.31,0.31 0 0 1 0.23,-0.46z"/>
   <path id="svg_120" d="m482.329603,460.298311l4.63,-1.12a0.3,0.3 0 0 1 0.3,0.09l0.9,0.94a0.31,0.31 0 0 1 -0.15,0.52l-4.58,1.15a0.29,0.29 0 0 1 -0.29,-0.08l-1,-1a0.32,0.32 0 0 1 0.19,-0.5z"/>
   <path id="svg_121" d="m488.469603,458.878311l4.77,-1.16a0.24,0.24 0 0 1 0.24,0.07l1,1.05a0.24,0.24 0 0 1 -0.12,0.41l-4.71,1.19a0.26,0.26 0 0 1 -0.24,-0.07l-1.05,-1.07a0.25,0.25 0 0 1 0.11,-0.42z"/>
   <path id="svg_122" d="m494.589603,457.448311l4.77,-1.16a0.22,0.22 0 0 1 0.24,0.07l1,1a0.26,0.26 0 0 1 -0.12,0.42l-4.69,1.23a0.27,0.27 0 0 1 -0.24,-0.07l-1.08,-1.06a0.25,0.25 0 0 1 0.12,-0.43z"/>
   <path id="svg_123" d="m500.709603,456.188311l4.77,-1.16a0.26,0.26 0 0 1 0.24,0.07l1,1a0.26,0.26 0 0 1 -0.12,0.42l-4.71,1.18a0.26,0.26 0 0 1 -0.25,-0.07l-1.05,-1.06a0.26,0.26 0 0 1 0.12,-0.38z"/>
   <path id="svg_124" d="m506.509603,454.798311l4.92,-1.19a0.18,0.18 0 0 1 0.18,0l1.09,1.15a0.18,0.18 0 0 1 -0.09,0.31l-4.82,1.27a0.17,0.17 0 0 1 -0.18,0l-1.16,-1.17a0.19,0.19 0 0 1 0.06,-0.37z"/>
   <path id="svg_125" d="m512.369603,453.548311l4.92,-1.2a0.21,0.21 0 0 1 0.18,0.06l1.1,1.15a0.19,0.19 0 0 1 -0.09,0.31l-4.86,1.22a0.18,0.18 0 0 1 -0.18,0l-1.16,-1.21a0.19,0.19 0 0 1 0.09,-0.33z"/>
   <path id="svg_126" d="m518.219603,452.208311l4.54,-1a0.19,0.19 0 0 1 0.19,0.07l0.88,1.08a0.18,0.18 0 0 1 -0.1,0.29l-4.27,1.13a0.17,0.17 0 0 1 -0.18,-0.05l-1.16,-1.17a0.18,0.18 0 0 1 0.1,-0.35z"/>
   <path id="svg_127" d="m523.789603,450.928311l4.55,-1a0.18,0.18 0 0 1 0.19,0.06l0.88,1.08a0.19,0.19 0 0 1 -0.1,0.3l-4.27,1.13a0.22,0.22 0 0 1 -0.18,0l-1.16,-1.18a0.19,0.19 0 0 1 0.09,-0.39z"/>
   <path id="svg_128" d="m446.249603,474.878311l1.68,2.39a0.29,0.29 0 0 0 0.31,0.12l8.75,-2a0.29,0.29 0 0 0 0.16,-0.46l-1.85,-2.45a0.3,0.3 0 0 0 -0.31,-0.1l-8.56,2.09a0.31,0.31 0 0 0 -0.18,0.41z"/>
   <path id="svg_129" d="m448.899603,478.108311l1.68,2.66a0.28,0.28 0 0 0 0.31,0.13l10.57,-2.51a0.29,0.29 0 0 0 0.16,-0.47l-2.09,-2.59a0.29,0.29 0 0 0 -0.3,-0.1l-10.15,2.44a0.29,0.29 0 0 0 -0.18,0.44z"/>
   <path id="svg_130" d="m451.289603,481.628311l2,2.89a0.29,0.29 0 0 0 0.31,0.12l14,-3.46a0.3,0.3 0 0 0 0.17,-0.47l-2.26,-2.89a0.29,0.29 0 0 0 -0.3,-0.11l-13.84,3.47a0.29,0.29 0 0 0 -0.08,0.45z"/>
   <path id="svg_131" d="m483.339603,478.468311l2.56,3.09a0.32,0.32 0 0 0 0.32,0.1l30.8,-7.69a0.3,0.3 0 0 0 0.14,-0.52l-3.14,-3.13a0.3,0.3 0 0 0 -0.3,-0.08l-30.22,7.73a0.31,0.31 0 0 0 -0.16,0.5z"/>
   <path id="svg_132" d="m515.139603,470.498311l3,3a0.26,0.26 0 0 0 0.25,0.07l6.31,-1.69a0.25,0.25 0 0 0 0.11,-0.42l-3.13,-3.07a0.23,0.23 0 0 0 -0.24,-0.06l-6.2,1.71a0.25,0.25 0 0 0 -0.1,0.46z"/>
   <path id="svg_133" d="m530.389603,468.588311l1.37,1.46a0.18,0.18 0 0 0 0.18,0.05l4.68,-1.26a0.18,0.18 0 0 0 0.08,-0.31l-1.67,-1.57a0.19,0.19 0 0 0 -0.18,0l-4.38,1.37a0.18,0.18 0 0 0 -0.08,0.26z"/>
   <path id="svg_134" d="m534.369603,465.478311l1.64,1.72a0.17,0.17 0 0 0 0.19,0.05l4.29,-1.49a0.18,0.18 0 0 0 0.07,-0.31l-1.6,-1.45a0.2,0.2 0 0 0 -0.18,0l-4.33,1.21a0.19,0.19 0 0 0 -0.08,0.27z"/>
   <path id="svg_135" d="m537.529603,468.458311l-1.18,-1a0.19,0.19 0 0 1 0.06,-0.32l4.27,-1.48a0.18,0.18 0 0 1 0.2,0l1.33,1.29a0.19,0.19 0 0 1 -0.08,0.32l-4.44,1.15a0.2,0.2 0 0 1 -0.16,0.04z"/>
   <path id="svg_136" d="m541.909603,465.818311c0.37,0.35 1,1.06 1.27,1.3a0.19,0.19 0 0 0 0.18,0.05l4.45,-1.21a0.19,0.19 0 0 0 0.08,-0.32l-1.58,-1.42a0.17,0.17 0 0 0 -0.18,0l-4.14,1.33a0.18,0.18 0 0 0 -0.08,0.27z"/>
   <path id="svg_137" d="m529.419603,462.998311l2.39,2.3a0.16,0.16 0 0 0 0.17,0.05l11.49,-3a0.18,0.18 0 0 0 0.07,-0.32l-2.75,-2.34a0.17,0.17 0 0 0 -0.17,0l-11.08,3a0.18,0.18 0 0 0 -0.12,0.31z"/>
   <path id="svg_138" d="m528.639603,459.458311l2.46,2.19a0.21,0.21 0 0 0 0.17,0l8.64,-2a0.19,0.19 0 0 0 0.08,-0.33l-2.83,-2.37a0.21,0.21 0 0 0 -0.17,0l-8.27,2.23a0.19,0.19 0 0 0 -0.08,0.28z"/>
   <path id="svg_139" d="m529.429603,455.688311l2.33,2.08a0.18,0.18 0 0 0 0.17,0l4.43,-1a0.2,0.2 0 0 0 0.09,-0.33l-2.76,-2.38a0.19,0.19 0 0 0 -0.18,0l-4,1.28a0.19,0.19 0 0 0 -0.08,0.35z"/>
   <path id="svg_140" d="m523.359603,453.618311l2.26,2.05a0.2,0.2 0 0 0 0.17,0l7,-1.67a0.19,0.19 0 0 0 0.08,-0.32l-2.69,-2.25a0.21,0.21 0 0 0 -0.17,0l-6.6,1.87a0.19,0.19 0 0 0 -0.05,0.32z"/>
  </g>
  <path id="svg_141" fill="#464a5f" d="m444.029603,470.538311l1.53,2.46a0.3,0.3 0 0 0 0.31,0.13l5.17,-1.15a0.3,0.3 0 0 0 0.17,-0.46l-1.71,-2.38a0.31,0.31 0 0 0 -0.3,-0.12l-5,1.07a0.3,0.3 0 0 0 -0.17,0.45z"/>
  <path id="svg_142" fill="#464a5f" d="m450.789603,469.118311l1.52,2.46a0.3,0.3 0 0 0 0.32,0.13l5.16,-1.15a0.29,0.29 0 0 0 0.17,-0.46l-1.7,-2.38a0.29,0.29 0 0 0 -0.3,-0.11l-5,1.07a0.29,0.29 0 0 0 -0.17,0.44z"/>
  <path id="svg_143" fill="#464a5f" d="m457.329603,467.698311l1.53,2.46a0.28,0.28 0 0 0 0.31,0.13l5.17,-1.15a0.29,0.29 0 0 0 0.17,-0.45l-1.72,-2.39a0.29,0.29 0 0 0 -0.3,-0.11l-5,1.07a0.29,0.29 0 0 0 -0.16,0.44z"/>
  <path id="svg_144" fill="#464a5f" d="m463.789603,466.298311l1.51,2.43a0.31,0.31 0 0 0 0.34,0.14l5.12,-1.14a0.32,0.32 0 0 0 0.18,-0.49l-1.7,-2.36a0.31,0.31 0 0 0 -0.32,-0.13l-5,1.06a0.32,0.32 0 0 0 -0.13,0.49z"/>
  <path id="svg_145" fill="#464a5f" d="m463.259603,470.058311l1.53,2.47a0.31,0.31 0 0 0 0.31,0.13l5.16,-1.15a0.29,0.29 0 0 0 0.17,-0.46l-1.7,-2.38a0.3,0.3 0 0 0 -0.3,-0.12l-5,1.07a0.29,0.29 0 0 0 -0.17,0.44z"/>
  <path id="svg_146" fill="#464a5f" d="m456.569603,471.478311l1.53,2.46a0.32,0.32 0 0 0 0.32,0.14l5.16,-1.15a0.29,0.29 0 0 0 0.17,-0.46l-1.71,-2.38a0.29,0.29 0 0 0 -0.3,-0.12l-5,1.07a0.3,0.3 0 0 0 -0.17,0.44z"/>
  <path id="svg_147" fill="#464a5f" d="m460.919603,474.508311l1.53,2.46a0.29,0.29 0 0 0 0.32,0.13l5.16,-1.15a0.29,0.29 0 0 0 0.17,-0.46l-1.71,-2.38a0.28,0.28 0 0 0 -0.3,-0.11l-5,1.06a0.3,0.3 0 0 0 -0.17,0.45z"/>
  <path id="svg_148" fill="#464a5f" d="m467.069603,477.148311l1.53,2.47a0.29,0.29 0 0 0 0.31,0.13l5.16,-1.15a0.3,0.3 0 0 0 0.18,-0.46l-1.71,-2.38a0.3,0.3 0 0 0 -0.3,-0.12l-5,1.07a0.29,0.29 0 0 0 -0.17,0.44z"/>
  <path id="svg_149" fill="#464a5f" d="m468.139603,481.438311l2.47,3.09a0.29,0.29 0 0 0 0.3,0.1l5.2,-1.35a0.3,0.3 0 0 0 0.16,-0.47l-2.56,-3.12a0.29,0.29 0 0 0 -0.3,-0.1l-5.12,1.38a0.3,0.3 0 0 0 -0.15,0.47z"/>
  <path id="svg_150" fill="#464a5f" d="m474.939603,479.728311l2.54,3.19a0.29,0.29 0 0 0 0.3,0.1l6.79,-1.88a0.3,0.3 0 0 0 0.15,-0.47l-2.56,-3.12a0.29,0.29 0 0 0 -0.3,-0.1l-6.76,1.82a0.29,0.29 0 0 0 -0.16,0.46z"/>
  <path id="svg_151" fill="#464a5f" d="m461.489603,483.078311l2.47,3.09a0.29,0.29 0 0 0 0.3,0.1l5.2,-1.35a0.3,0.3 0 0 0 0.16,-0.47l-2.56,-3.12a0.29,0.29 0 0 0 -0.3,-0.1l-5.12,1.38a0.3,0.3 0 0 0 -0.15,0.47z"/>
  <path id="svg_152" fill="#464a5f" d="m454.459603,484.878311l2.47,3.1a0.29,0.29 0 0 0 0.3,0.1l5.2,-1.35a0.3,0.3 0 0 0 0.16,-0.47l-2.55,-3.12a0.31,0.31 0 0 0 -0.31,-0.1l-5.12,1.38a0.29,0.29 0 0 0 -0.15,0.46z"/>
  <path id="svg_153" fill="#464a5f" d="m470.239603,464.788311l1.5,2.43a0.32,0.32 0 0 0 0.34,0.14l5.12,-1.14a0.31,0.31 0 0 0 0.18,-0.49l-1.68,-2.35a0.31,0.31 0 0 0 -0.32,-0.12l-4.94,1.06a0.31,0.31 0 0 0 -0.2,0.47z"/>
  <path id="svg_154" fill="#464a5f" d="m469.789603,468.568311l1.5,2.43a0.32,0.32 0 0 0 0.34,0.14l5.12,-1.14a0.31,0.31 0 0 0 0.18,-0.49l-1.68,-2.34a0.31,0.31 0 0 0 -0.32,-0.13l-4.94,1.06a0.31,0.31 0 0 0 -0.2,0.47z"/>
  <path id="svg_155" fill="#464a5f" d="m476.509603,463.368311l1.5,2.43a0.32,0.32 0 0 0 0.34,0.14l5.12,-1.14a0.31,0.31 0 0 0 0.18,-0.49l-1.68,-2.35a0.32,0.32 0 0 0 -0.32,-0.12l-4.94,1.04a0.31,0.31 0 0 0 -0.2,0.49z"/>
  <path id="svg_156" fill="#464a5f" d="m494.849603,459.368311l2.12,2.26a0.28,0.28 0 0 0 0.24,0.07l4.57,-1.06a0.25,0.25 0 0 0 0.12,-0.43l-2.39,-2.26a0.27,0.27 0 0 0 -0.24,-0.06l-4.3,1.06a0.25,0.25 0 0 0 -0.12,0.42z"/>
  <path id="svg_157" fill="#464a5f" d="m500.709603,458.018311l2.13,2.25a0.24,0.24 0 0 0 0.24,0.08l4.57,-1.06a0.25,0.25 0 0 0 0.14,-0.41l-2.39,-2.26a0.26,0.26 0 0 0 -0.24,-0.06l-4.3,1.06a0.26,0.26 0 0 0 -0.15,0.4z"/>
  <path id="svg_158" fill="#464a5f" d="m494.969603,463.028311l2.13,2.26a0.26,0.26 0 0 0 0.24,0.07l4.57,-1.06a0.25,0.25 0 0 0 0.12,-0.43l-2.4,-2.26a0.24,0.24 0 0 0 -0.23,-0.06l-4.3,1.06a0.26,0.26 0 0 0 -0.13,0.42z"/>
  <path id="svg_159" fill="#464a5f" d="m488.959603,464.428311l2,2.15a0.31,0.31 0 0 0 0.3,0.09l4.43,-1a0.31,0.31 0 0 0 0.14,-0.53l-2.29,-2.16a0.28,0.28 0 0 0 -0.29,-0.08l-4.16,1a0.31,0.31 0 0 0 -0.13,0.53z"/>
  <path id="svg_160" fill="#464a5f" d="m493.529603,471.228311l2,2.16a0.31,0.31 0 0 0 0.3,0.09l4.43,-1a0.32,0.32 0 0 0 0.14,-0.54l-2.29,-2.16a0.3,0.3 0 0 0 -0.29,-0.07l-4.16,1a0.32,0.32 0 0 0 -0.13,0.52z"/>
  <path id="svg_161" fill="#464a5f" d="m487.259603,472.648311l2,2.16a0.33,0.33 0 0 0 0.3,0.09l4.42,-1a0.31,0.31 0 0 0 0.15,-0.53l-2.29,-2.16a0.34,0.34 0 0 0 -0.29,-0.08l-4.17,1a0.32,0.32 0 0 0 -0.12,0.52z"/>
  <path id="svg_162" fill="#464a5f" d="m480.889603,474.228311l2,2.16a0.34,0.34 0 0 0 0.3,0.09l4.43,-1a0.31,0.31 0 0 0 0.17,-0.6l-2.29,-2.16a0.3,0.3 0 0 0 -0.29,-0.08l-4.16,1a0.31,0.31 0 0 0 -0.16,0.59z"/>
  <path id="svg_163" fill="#464a5f" d="m474.159603,475.558311l2.06,2.19a0.29,0.29 0 0 0 0.28,0.08l4.47,-1a0.3,0.3 0 0 0 0.14,-0.5l-2.33,-2.2a0.32,0.32 0 0 0 -0.27,-0.07l-4.21,1a0.29,0.29 0 0 0 -0.14,0.5z"/>
  <path id="svg_164" fill="#464a5f" d="m487.199603,468.708311l2,2.16a0.3,0.3 0 0 0 0.3,0.09l4.42,-1a0.32,0.32 0 0 0 0.15,-0.54l-2.28,-2.18a0.31,0.31 0 0 0 -0.29,-0.07l-4.17,1a0.31,0.31 0 0 0 -0.13,0.54z"/>
  <path id="svg_165" fill="#464a5f" d="m481.079603,470.128311l2,2.16a0.33,0.33 0 0 0 0.3,0.09l4.43,-1a0.31,0.31 0 0 0 0.14,-0.53l-2.29,-2.16a0.33,0.33 0 0 0 -0.29,-0.08l-4.16,1a0.32,0.32 0 0 0 -0.13,0.52z"/>
  <path id="svg_166" fill="#464a5f" d="m474.529603,471.518311l2,2.15a0.31,0.31 0 0 0 0.3,0.1l4.42,-1a0.31,0.31 0 0 0 0.15,-0.53l-2.29,-2.16a0.29,0.29 0 0 0 -0.29,-0.08l-4.17,1a0.31,0.31 0 0 0 -0.12,0.52z"/>
  <path id="svg_167" fill="#464a5f" d="m467.789603,473.068311l2.06,2.19a0.31,0.31 0 0 0 0.29,0.08l4.47,-1a0.3,0.3 0 0 0 0.13,-0.5l-2.32,-2.19a0.3,0.3 0 0 0 -0.27,-0.08l-4.21,1a0.3,0.3 0 0 0 -0.15,0.5z"/>
  <path id="svg_168" fill="#464a5f" d="m493.499603,467.228311l2,2.16a0.33,0.33 0 0 0 0.3,0.09l4.42,-1a0.31,0.31 0 0 0 0.15,-0.53l-2.29,-2.16a0.34,0.34 0 0 0 -0.29,-0.08l-4.17,1a0.32,0.32 0 0 0 -0.12,0.52z"/>
  <path id="svg_169" fill="#464a5f" d="m482.789603,465.998311l2,2.16a0.3,0.3 0 0 0 0.3,0.09l4.42,-1a0.31,0.31 0 0 0 0.14,-0.53l-2.28,-2.16a0.34,0.34 0 0 0 -0.29,-0.08l-4.17,1a0.31,0.31 0 0 0 -0.12,0.52z"/>
  <path id="svg_170" fill="#464a5f" d="m506.369603,456.578311l2.23,2.37a0.19,0.19 0 0 0 0.18,0.05l4.72,-1.09a0.19,0.19 0 0 0 0.09,-0.32l-2.51,-2.37a0.2,0.2 0 0 0 -0.18,0l-4.44,1.1a0.18,0.18 0 0 0 -0.09,0.26z"/>
  <path id="svg_171" fill="#464a5f" d="m512.069603,455.318311l2.23,2.37a0.24,0.24 0 0 0 0.18,0.05l4.72,-1.09a0.19,0.19 0 0 0 0.09,-0.32l-2.5,-2.37a0.18,0.18 0 0 0 -0.17,-0.05l-4.45,1.1a0.19,0.19 0 0 0 -0.1,0.31z"/>
  <path id="svg_172" fill="#464a5f" d="m517.939603,453.968311l2,2.2a0.19,0.19 0 0 0 0.19,0l4.4,-1.2a0.19,0.19 0 0 0 0.07,-0.32l-2.27,-1.92a0.2,0.2 0 0 0 -0.16,0l-4.17,0.92a0.18,0.18 0 0 0 -0.06,0.32z"/>
  <path id="svg_173" fill="#464a5f" d="m524.079603,456.018311l2,2.2a0.17,0.17 0 0 0 0.18,0.05l4.4,-1.2a0.18,0.18 0 0 0 0.07,-0.32l-2.23,-1.87a0.18,0.18 0 0 0 -0.16,0l-4.16,0.92a0.19,0.19 0 0 0 -0.1,0.22z"/>
  <path id="svg_174" fill="#464a5f" d="m523.339603,460.008311l1.93,2.09a0.28,0.28 0 0 0 0.25,0.07l4.24,-1.16a0.25,0.25 0 0 0 0.1,-0.44l-2.15,-1.81a0.29,0.29 0 0 0 -0.22,-0.06l-4,0.89a0.26,0.26 0 0 0 -0.15,0.42z"/>
  <path id="svg_175" fill="#464a5f" d="m518.329603,465.078311l1.93,2.09a0.23,0.23 0 0 0 0.25,0.07l4.28,-1.16a0.25,0.25 0 0 0 0.1,-0.43l-2.19,-1.77a0.25,0.25 0 0 0 -0.22,-0.05l-4,0.89a0.25,0.25 0 0 0 -0.15,0.36z"/>
  <path id="svg_176" fill="#464a5f" d="m512.309603,466.658311l1.93,2.09a0.28,0.28 0 0 0 0.25,0.07l4.24,-1.16a0.25,0.25 0 0 0 0.1,-0.44l-2.15,-1.81a0.29,0.29 0 0 0 -0.22,-0.06l-4,0.89a0.26,0.26 0 0 0 -0.15,0.42z"/>
  <path id="svg_177" fill="#464a5f" d="m523.999603,463.598311l1.93,2.09a0.24,0.24 0 0 0 0.25,0.07l4.25,-1.16a0.25,0.25 0 0 0 0.09,-0.43l-2.15,-1.82a0.25,0.25 0 0 0 -0.22,-0.05l-4,0.88a0.26,0.26 0 0 0 -0.15,0.42z"/>
  <path id="svg_178" fill="#464a5f" d="m523.019603,468.108311l2.91,2.61a0.24,0.24 0 0 0 0.24,0.05l4.21,-1.19a0.25,0.25 0 0 0 0.1,-0.43l-3.14,-2.75a0.23,0.23 0 0 0 -0.24,0l-4,1.33a0.25,0.25 0 0 0 -0.08,0.38z"/>
  <path id="svg_179" fill="#464a5f" d="m512.789603,458.878311l2,2.2a0.19,0.19 0 0 0 0.18,0.06l4.4,-1.2a0.19,0.19 0 0 0 0.07,-0.33l-2.27,-1.91a0.16,0.16 0 0 0 -0.16,0l-4.16,0.91a0.19,0.19 0 0 0 -0.06,0.27z"/>
  <path id="svg_180" fill="#464a5f" d="m507.139603,460.258311l1.93,2.09a0.26,0.26 0 0 0 0.25,0.07l4.25,-1.16a0.25,0.25 0 0 0 0.09,-0.43l-2.15,-1.82a0.25,0.25 0 0 0 -0.22,-0.05l-4,0.88a0.26,0.26 0 0 0 -0.15,0.42z"/>
  <path id="svg_181" fill="#464a5f" d="m505.979603,464.298311l1.93,2.08a0.23,0.23 0 0 0 0.25,0.07l4.24,-1.15a0.26,0.26 0 0 0 0.1,-0.44l-2.16,-1.82a0.25,0.25 0 0 0 -0.22,-0.05l-4,0.89a0.25,0.25 0 0 0 -0.14,0.42z"/>
  <path id="svg_182" fill="#464a5f" d="m499.989603,465.748311l1.93,2.08a0.23,0.23 0 0 0 0.25,0.07l4.24,-1.15a0.26,0.26 0 0 0 0.1,-0.44l-2.16,-1.82a0.23,0.23 0 0 0 -0.21,-0.05l-4,0.89a0.25,0.25 0 0 0 -0.15,0.42z"/>
  <path id="svg_183" fill="#464a5f" d="m501.059603,461.618311l1.93,2.08a0.23,0.23 0 0 0 0.25,0.07l4.24,-1.15a0.26,0.26 0 0 0 0.1,-0.44l-2.15,-1.81a0.29,0.29 0 0 0 -0.22,-0.06l-4,0.89a0.25,0.25 0 0 0 -0.15,0.42z"/>
  <path id="svg_184" fill="#464a5f" d="m506.069603,468.008311l1.93,2.09a0.23,0.23 0 0 0 0.25,0.07l4.24,-1.15a0.25,0.25 0 0 0 0.1,-0.44l-2.15,-1.82a0.25,0.25 0 0 0 -0.22,-0.05l-4,0.89a0.25,0.25 0 0 0 -0.15,0.41z"/>
  <path id="svg_185" fill="#464a5f" d="m500.189603,469.608311l1.83,2a0.33,0.33 0 0 0 0.31,0.09l4.09,-1.12a0.31,0.31 0 0 0 0.12,-0.54l-2,-1.72a0.29,0.29 0 0 0 -0.27,-0.07l-3.88,0.86a0.31,0.31 0 0 0 -0.2,0.5z"/>
  <path id="svg_186" fill="#464a5f" d="m518.629603,457.398311l2,2.2a0.2,0.2 0 0 0 0.19,0.06l4.4,-1.2a0.19,0.19 0 0 0 0.07,-0.33l-2.27,-1.91a0.16,0.16 0 0 0 -0.16,0l-4.16,0.92a0.18,0.18 0 0 0 -0.07,0.26z"/>
  <path id="svg_187" fill="#464a5f" d="m517.789603,461.358311l1.93,2.09a0.23,0.23 0 0 0 0.25,0.07l4.24,-1.15a0.26,0.26 0 0 0 0.1,-0.44l-2.16,-1.82a0.25,0.25 0 0 0 -0.22,-0.05l-4,0.89a0.24,0.24 0 0 0 -0.14,0.41z"/>
  <path id="svg_188" fill="#464a5f" d="m512.059603,462.938311l1.93,2.09a0.25,0.25 0 0 0 0.25,0.07l4.24,-1.16a0.25,0.25 0 0 0 0.1,-0.43l-2.16,-1.82a0.23,0.23 0 0 0 -0.21,-0.05l-4,0.88a0.26,0.26 0 0 0 -0.15,0.42z"/>
  <path id="svg_189" fill="#464a5f" d="m488.859603,460.658311l2.13,2.22a0.24,0.24 0 0 0 0.24,0.07l4.57,-1.05a0.25,0.25 0 0 0 0.11,-0.43l-2.39,-2.26a0.27,0.27 0 0 0 -0.24,-0.07l-4.3,1.07a0.25,0.25 0 0 0 -0.12,0.45z"/>
  <path id="svg_190" fill="#464a5f" d="m482.789603,462.158311l2,2.15a0.29,0.29 0 0 0 0.3,0.09l4.43,-1a0.31,0.31 0 0 0 0.14,-0.53l-2.29,-2.16a0.28,0.28 0 0 0 -0.29,-0.08l-4.16,1a0.31,0.31 0 0 0 -0.13,0.53z"/>
  <path id="svg_191" fill="#464a5f" d="m476.219603,467.218311l1.51,2.43a0.32,0.32 0 0 0 0.34,0.14l5.11,-1.14a0.32,0.32 0 0 0 0.19,-0.49l-1.68,-2.35a0.31,0.31 0 0 0 -0.32,-0.12l-5,1.06a0.31,0.31 0 0 0 -0.15,0.47z"/>
  <path id="svg_192" fill="#464a5f" d="m442.709603,468.118311l5.05,-1.17a0.31,0.31 0 0 1 0.3,0.11l0.89,1.17a0.29,0.29 0 0 1 -0.17,0.46l-5.23,1.19a0.29,0.29 0 0 1 -0.32,-0.14l-0.71,-1.21a0.3,0.3 0 0 1 0.19,-0.41z"/>
  <path id="svg_193" fill="#464a5f" d="m449.659603,466.608311l5,-1.17a0.31,0.31 0 0 1 0.3,0.11l0.89,1.17a0.29,0.29 0 0 1 -0.17,0.46l-5.23,1.22a0.29,0.29 0 0 1 -0.32,-0.14l-0.71,-1.22a0.29,0.29 0 0 1 0.24,-0.43z"/>
  <path id="svg_194" fill="#464a5f" d="m456.369603,465.168311l5,-1.17a0.29,0.29 0 0 1 0.3,0.11l0.89,1.16a0.3,0.3 0 0 1 -0.17,0.47l-5.23,1.22a0.3,0.3 0 0 1 -0.32,-0.14l-0.71,-1.22a0.29,0.29 0 0 1 0.24,-0.43z"/>
  <path id="svg_195" fill="#464a5f" d="m462.899603,463.678311l5,-1.17a0.29,0.29 0 0 1 0.3,0.11l0.89,1.17a0.3,0.3 0 0 1 -0.17,0.46l-5.13,1.22a0.29,0.29 0 0 1 -0.32,-0.14l-0.71,-1.22a0.29,0.29 0 0 1 0.14,-0.43z"/>
  <path id="svg_196" fill="#464a5f" d="m469.559603,462.208311l5,-1.16a0.33,0.33 0 0 1 0.32,0.11l0.86,1.14a0.31,0.31 0 0 1 -0.18,0.49l-5.19,1.21a0.32,0.32 0 0 1 -0.34,-0.15l-0.69,-1.18a0.32,0.32 0 0 1 0.22,-0.46z"/>
  <path id="svg_197" fill="#464a5f" d="m476.019603,460.878311l5,-1.16a0.31,0.31 0 0 1 0.32,0.12l0.86,1.13a0.31,0.31 0 0 1 -0.18,0.49l-5.19,1.21a0.32,0.32 0 0 1 -0.34,-0.15l-0.68,-1.18a0.31,0.31 0 0 1 0.21,-0.46z"/>
  <path id="svg_198" fill="#464a5f" d="m482.329603,459.548311l4.63,-1.13a0.32,0.32 0 0 1 0.3,0.09l0.9,0.95a0.3,0.3 0 0 1 -0.15,0.51l-4.58,1.15a0.29,0.29 0 0 1 -0.29,-0.08l-1,-1a0.31,0.31 0 0 1 0.19,-0.49z"/>
  <path id="svg_199" fill="#464a5f" d="m488.469603,458.128311l4.77,-1.16a0.27,0.27 0 0 1 0.24,0.07l1,1a0.25,0.25 0 0 1 -0.12,0.42l-4.71,1.18a0.24,0.24 0 0 1 -0.24,-0.07l-1.05,-1.07a0.25,0.25 0 0 1 0.11,-0.37z"/>
  <path id="svg_200" fill="#464a5f" d="m494.589603,456.688311l4.77,-1.16a0.26,0.26 0 0 1 0.24,0.07l1,1a0.26,0.26 0 0 1 -0.12,0.42l-4.69,1.23a0.24,0.24 0 0 1 -0.24,-0.07l-1.05,-1.07a0.25,0.25 0 0 1 0.09,-0.42z"/>
  <path id="svg_201" fill="#464a5f" d="m500.709603,455.438311l4.77,-1.16a0.24,0.24 0 0 1 0.24,0.07l1,1a0.26,0.26 0 0 1 -0.12,0.42l-4.71,1.19a0.29,0.29 0 0 1 -0.25,-0.07l-1.05,-1.01a0.25,0.25 0 0 1 0.12,-0.44z"/>
  <path id="svg_202" fill="#464a5f" d="m506.509603,454.048311l4.92,-1.2a0.18,0.18 0 0 1 0.18,0l1.09,1.16a0.19,0.19 0 0 1 -0.09,0.31l-4.82,1.27a0.23,0.23 0 0 1 -0.18,0l-1.16,-1.18a0.19,0.19 0 0 1 0.06,-0.36z"/>
  <path id="svg_203" fill="#464a5f" d="m512.369603,452.788311l4.92,-1.19a0.18,0.18 0 0 1 0.18,0l1.1,1.15a0.18,0.18 0 0 1 -0.09,0.31l-4.86,1.22a0.18,0.18 0 0 1 -0.18,-0.05l-1.16,-1.17a0.19,0.19 0 0 1 0.09,-0.27z"/>
  <path id="svg_204" fill="#464a5f" d="m518.219603,451.448311l4.54,-1a0.17,0.17 0 0 1 0.19,0.06l0.88,1.08a0.19,0.19 0 0 1 -0.1,0.3l-4.27,1.13a0.23,0.23 0 0 1 -0.18,-0.05l-1.16,-1.18a0.18,0.18 0 0 1 0.1,-0.34z"/>
  <path id="svg_205" fill="#464a5f" d="m523.789603,450.168311l4.55,-1a0.2,0.2 0 0 1 0.19,0.06l0.88,1.08a0.19,0.19 0 0 1 -0.1,0.3l-4.27,1.13a0.17,0.17 0 0 1 -0.18,-0.05l-1.16,-1.17a0.19,0.19 0 0 1 0.09,-0.35z"/>
  <path id="svg_206" fill="#464a5f" d="m446.249603,474.138311l1.68,2.39a0.29,0.29 0 0 0 0.31,0.12l8.75,-2a0.29,0.29 0 0 0 0.16,-0.46l-1.85,-2.44a0.29,0.29 0 0 0 -0.31,-0.11l-8.56,2.1a0.3,0.3 0 0 0 -0.18,0.4z"/>
  <path id="svg_207" fill="#464a5f" d="m448.899603,477.348311l1.68,2.67a0.29,0.29 0 0 0 0.31,0.13l10.57,-2.52a0.29,0.29 0 0 0 0.16,-0.47l-2.09,-2.59a0.31,0.31 0 0 0 -0.3,-0.1l-10.15,2.41a0.29,0.29 0 0 0 -0.18,0.47z"/>
  <path id="svg_208" fill="#464a5f" d="m451.289603,480.878311l2,2.89a0.29,0.29 0 0 0 0.31,0.11l14,-3.46a0.29,0.29 0 0 0 0.17,-0.46l-2.26,-2.9a0.29,0.29 0 0 0 -0.3,-0.1l-13.84,3.46a0.3,0.3 0 0 0 -0.08,0.46z"/>
  <path id="svg_209" fill="#464a5f" d="m483.339603,477.718311l2.56,3.08a0.32,0.32 0 0 0 0.32,0.1l30.8,-7.68a0.31,0.31 0 0 0 0.14,-0.53l-3.14,-3.12a0.33,0.33 0 0 0 -0.3,-0.09l-30.22,7.73a0.32,0.32 0 0 0 -0.16,0.51z"/>
  <path id="svg_210" fill="#464a5f" d="m515.139603,469.748311l3,3a0.26,0.26 0 0 0 0.25,0.06l6.31,-1.69a0.25,0.25 0 0 0 0.11,-0.42l-3.13,-3.06a0.24,0.24 0 0 0 -0.24,-0.07l-6.2,1.72a0.25,0.25 0 0 0 -0.1,0.46z"/>
  <path id="svg_211" fill="#464a5f" d="m530.389603,467.878311l1.37,1.45a0.18,0.18 0 0 0 0.18,0l4.68,-1.25a0.19,0.19 0 0 0 0.08,-0.32l-1.67,-1.56a0.17,0.17 0 0 0 -0.18,-0.05l-4.38,1.37a0.18,0.18 0 0 0 -0.08,0.36z"/>
  <path id="svg_212" fill="#464a5f" d="m534.369603,464.728311l1.64,1.72a0.17,0.17 0 0 0 0.19,0l4.29,-1.48a0.19,0.19 0 0 0 0.07,-0.32l-1.6,-1.44a0.2,0.2 0 0 0 -0.18,-0.05l-4.33,1.22a0.19,0.19 0 0 0 -0.08,0.35z"/>
  <path id="svg_213" fill="#464a5f" d="m537.529603,467.698311l-1.18,-0.95a0.19,0.19 0 0 1 0.06,-0.33l4.27,-1.48a0.2,0.2 0 0 1 0.2,0l1.33,1.3a0.18,0.18 0 0 1 -0.08,0.31l-4.44,1.15a0.2,0.2 0 0 1 -0.16,0z"/>
  <path id="svg_214" fill="#464a5f" d="m541.909603,465.058311c0.37,0.36 1,1.06 1.27,1.3a0.17,0.17 0 0 0 0.18,0l4.45,-1.21a0.18,0.18 0 0 0 0.08,-0.31l-1.58,-1.43a0.2,0.2 0 0 0 -0.18,0l-4.14,1.33a0.19,0.19 0 0 0 -0.08,0.32z"/>
  <path id="svg_215" fill="#464a5f" d="m529.419603,462.248311l2.39,2.3a0.17,0.17 0 0 0 0.17,0l11.49,-3a0.19,0.19 0 0 0 0.07,-0.33l-2.79,-2.3a0.18,0.18 0 0 0 -0.17,0l-11.08,3a0.19,0.19 0 0 0 -0.08,0.33z"/>
  <path id="svg_216" fill="#464a5f" d="m528.639603,458.698311l2.46,2.19a0.18,0.18 0 0 0 0.17,0l8.64,-2a0.19,0.19 0 0 0 0.08,-0.33l-2.83,-2.36a0.18,0.18 0 0 0 -0.17,0l-8.27,2.22a0.19,0.19 0 0 0 -0.08,0.28z"/>
  <path id="svg_217" fill="#464a5f" d="m529.429603,454.928311l2.33,2.08a0.22,0.22 0 0 0 0.17,0.05l4.43,-1a0.19,0.19 0 0 0 0.09,-0.32l-2.76,-2.38a0.17,0.17 0 0 0 -0.18,0l-4,1.29a0.18,0.18 0 0 0 -0.08,0.28z"/>
  <path id="svg_218" fill="#464a5f" d="m523.359603,452.878311l2.26,2a0.17,0.17 0 0 0 0.17,0l7,-1.66a0.19,0.19 0 0 0 0.08,-0.33l-2.69,-2.25a0.17,0.17 0 0 0 -0.17,0l-6.6,1.86a0.19,0.19 0 0 0 -0.05,0.38z"/>
  <path id="svg_219" fill="#fbbebe" d="m462.389603,344.058311a198.8,198.8 0 0 0 -12.13,16a50.62,50.62 0 0 1 -4.91,6.55c-2.59,2.73 -5.83,4.78 -8.48,7.46c-3.07,3.11 -5.25,7 -7.39,10.79a79.07,79.07 0 0 0 -4,7.83a39.59,39.59 0 0 0 -1.75,25.37c0.81,3 2.43,6.38 5.49,7.09c2.4,0.56 4.8,-0.72 6.9,-2c2.26,-1.37 4.58,-2.87 5.91,-5.16a16.65,16.65 0 0 0 1.72,-6.31l2.63,-19.25a22.23,22.23 0 0 1 1.39,-6c1.51,-3.44 4.65,-5.89 7.94,-7.7s6.84,-3.16 10,-5.22c2.94,-1.92 5.47,-4.42 8.41,-6.34c3.61,-2.37 7.8,-3.84 11.09,-6.63s5.52,-7.63 3.5,-11.44a13.35,13.35 0 0 0 -3.61,-3.81l-6.43,-5.18c-1.37,-1.1 -4.2,-4.43 -5.93,-4.65s-4.35,2.4 -5.51,3.43a48.66,48.66 0 0 0 -4.84,5.17z"/>
  <path id="svg_220" fill="#4c64d2" d="m440.439603,314.798311a21.2,21.2 0 0 1 4,1c1.31,0.53 2.51,1.33 3.83,1.83a45.9,45.9 0 0 0 5.21,1.24a7,7 0 0 1 4.41,2.8a13.3,13.3 0 0 0 -7.35,4.75a22.23,22.23 0 0 0 -3.07,6.07a68.25,68.25 0 0 0 -4,20.08c-0.06,1.2 0,2.58 0.9,3.37c-4.45,-3.61 -10.74,-3.5 -16.46,-3.24a4.1,4.1 0 0 1 -1.6,-0.13a3.58,3.58 0 0 1 -1.41,-1.16a14,14 0 0 1 -3,-6.72c-0.54,-3.53 0.28,-7.11 1,-10.61a54.67,54.67 0 0 0 1.3,-10.27c0.05,-3.52 -1.06,-6.36 -1.64,-9.71c-0.71,-4.05 3.81,-2.06 6.23,-1.59l11.65,2.29z"/>
  <path id="svg_222" opacity="0.1" fill="#4c64d2" d="m654.336685,147.97608l-10.86,6.89l6.59,-12a10.69,10.69 0 0 0 -6.57,-2.35l-0.17,0a11.21,11.21 0 0 1 -2.25,-0.17l-3.69,2.34l1.58,-2.87a13.13,13.13 0 0 1 -6.44,-4.89l-6.59,4.18l4.16,-7.57c-3.85,-4.62 -9.05,-7.46 -14.76,-7.46c-6.85,0 -13,4.07 -16.9,10.42a12.65,12.65 0 0 1 -11.17,6l-0.37,0c-7.56,0 -13.7,8.58 -13.7,19.16s6.14,19.16 13.7,19.16a10.17,10.17 0 0 0 4.77,-1.2a19.8,19.8 0 0 1 16.58,-0.32a17.5,17.5 0 0 0 7.09,1.52a17.29,17.29 0 0 0 7,-1.49a19.79,19.79 0 0 1 16.43,0.32a10.24,10.24 0 0 0 4.72,1.17c7.57,0 13.7,-8.58 13.7,-19.16a24.35,24.35 0 0 0 -2.85,-11.68z"/>
  <path id="svg_223" opacity="0.1" fill="#4c64d2" d="m633.866683,170.672875a20.23,20.23 0 0 0 -11.74,1.28a17.27,17.27 0 0 1 -14.1,0a19.8,19.8 0 0 0 -16.58,0.32a10.29,10.29 0 0 1 -4.77,1.2c-6.72,0 -12.31,-6.78 -13.47,-15.71a12.94,12.94 0 0 0 3.36,-3.62c3.94,-6.35 10,-10.42 16.89,-10.42s12.89,4 16.83,10.3a13,13 0 0 0 11.16,6.14l0.18,0c5.35,-0.03 9.98,4.26 12.24,10.51z"/>
 </g>
</svg>